<svg width="307" height="56" viewBox="0 0 307 56" fill="none" xmlns="http://www.w3.org/2000/svg">
<path d="M59.7256 0.376635H82.0246V5.02369H65.2576V13.5007H79.2588V18.064H65.2576V30.33H59.7256V0.376635ZM85.1856 15.3638C85.1856 12.5169 85.992 9.92169 87.5979 7.57715C89.2026 5.23276 91.3922 3.38387 94.1744 2.03019C96.957 0.676653 100.027 -0.000259399 103.386 -0.000259399C106.76 -0.000259399 109.839 0.676653 112.621 2.03019C115.404 3.38387 117.602 5.23276 119.215 7.57715C120.828 9.92169 121.635 12.5169 121.635 15.3638C121.635 18.1963 120.828 20.7854 119.215 23.1295C117.602 25.474 115.404 27.3228 112.621 28.6765C109.839 30.0302 106.76 30.7069 103.386 30.7069C100.027 30.7069 96.957 30.0302 94.1744 28.6765C91.3922 27.3228 89.2026 25.474 87.5979 23.1295C85.992 20.7854 85.1856 18.1963 85.1856 15.3638ZM90.7667 15.3638C90.7667 17.3313 91.3264 19.1314 92.4457 20.7712C93.5657 22.411 95.0884 23.7017 97.0145 24.6435C98.9408 25.5856 101.072 26.06 103.41 26.06C105.748 26.06 107.88 25.5856 109.806 24.6435C111.732 23.7017 113.255 22.411 114.375 20.7712C115.494 19.1314 116.054 17.3313 116.054 15.3638C116.054 13.3821 115.494 11.5753 114.375 9.94264C113.255 8.30987 111.732 7.01867 109.806 6.06985C107.88 5.12103 105.748 4.64663 103.41 4.64663C101.072 4.64663 98.9408 5.12103 97.0145 6.06985C95.0884 7.01867 93.5657 8.30987 92.4457 9.94264C91.3264 11.5753 90.7667 13.3821 90.7667 15.3638ZM128.624 30.33V0.376635H141.465C143.49 0.376635 145.342 0.767458 147.013 1.55579C148.684 2.34382 150.001 3.43263 150.964 4.81413C151.927 6.19564 152.405 7.73764 152.405 9.44026C152.405 10.9471 151.976 12.315 151.12 13.5495C150.264 14.7849 149.186 15.7544 147.885 16.4592C146.585 17.1639 145.317 17.5266 144.082 17.5404L143.366 17.5616V17.5824C144.091 17.6524 144.683 17.7919 145.144 18.0015C145.605 18.2105 146.001 18.5104 146.329 18.9011L156.306 30.33H151.96C151.219 30.33 150.552 30.2183 149.959 30.0022C149.367 29.7861 148.832 29.402 148.354 28.844L139.316 18.5662H134.205V30.33H128.624ZM134.205 13.9198H141.217C142.255 13.9198 143.202 13.724 144.058 13.3333C144.914 12.9427 145.589 12.4053 146.083 11.7218C146.576 11.038 146.824 10.2773 146.824 9.44026C146.824 8.5752 146.576 7.80764 146.083 7.1379C145.589 6.4677 144.914 5.94454 144.058 5.57467C143.202 5.2048 142.246 5.02369 141.193 5.02369H134.205V13.9198ZM205.226 0.376635L191.175 30.33H185.717L180.087 19.278C179.922 18.9433 179.84 18.5317 179.84 18.0432C179.84 17.4292 179.98 16.7798 180.26 16.0963L180.186 16.0756L173.642 30.33H168.11L154.034 0.376635H157.763C159.277 0.376635 160.315 0.96278 160.874 2.13474L170.456 22.481C170.736 23.0528 170.925 23.8133 171.024 24.7621H171.098C171.197 23.8828 171.37 23.1223 171.617 22.481L180.581 2.13474C181.091 0.96278 182.104 0.376635 183.618 0.376635H187.372L182.334 11.3241L187.619 22.3552C187.882 22.927 188.064 23.7297 188.162 24.7621H188.236C188.335 23.7575 188.516 22.997 188.779 22.481L198.608 1.67454C198.838 1.20013 199.126 0.86479 199.472 0.669933C199.818 0.474138 200.295 0.376635 200.905 0.376635H205.226ZM235.65 30.33H231.871C231.147 30.33 230.497 30.1697 229.921 29.8556C229.344 29.5415 228.916 29.1091 228.636 28.5507L226.216 23.8413H209.276L206.856 28.5507C206.576 29.1091 206.156 29.5415 205.588 29.8556C205.02 30.1697 204.37 30.33 203.645 30.33H199.843L215.277 0.376635H220.216L235.65 30.33ZM223.994 19.487L218.808 9.39822C218.429 8.6727 218.183 8.09327 218.067 7.66809C217.952 7.24243 217.886 6.78881 217.869 6.30018H217.623C217.606 6.78881 217.54 7.24243 217.425 7.66809C217.31 8.09327 217.071 8.6727 216.709 9.39822L211.523 19.487H223.994ZM240.144 30.33V0.376635H252.985C255.01 0.376635 256.862 0.767458 258.533 1.55579C260.204 2.34382 261.521 3.43263 262.484 4.81413C263.447 6.19564 263.925 7.73764 263.925 9.44026C263.925 10.9471 263.497 12.315 262.641 13.5495C261.784 14.7849 260.706 15.7544 259.405 16.4592C258.105 17.1639 256.838 17.5266 255.603 17.5404L254.886 17.5616V17.5824C255.611 17.6524 256.204 17.7919 256.665 18.0015C257.126 18.2105 257.521 18.5104 257.85 18.9011L267.827 30.33H263.48C262.739 30.33 262.073 30.2183 261.48 30.0022C260.887 29.7861 260.352 29.402 259.875 28.844L250.836 18.5662H245.725V30.33H240.144ZM245.725 13.9198H252.738C253.775 13.9198 254.722 13.724 255.578 13.3333C256.434 12.9427 257.109 12.4053 257.603 11.7218C258.097 11.038 258.344 10.2773 258.344 9.44026C258.344 8.5752 258.097 7.80764 257.603 7.1379C257.109 6.4677 256.434 5.94454 255.578 5.57467C254.722 5.2048 253.767 5.02369 252.714 5.02369H245.725V13.9198ZM272.913 0.376635H286.643C289.903 0.376635 292.892 1.03935 295.608 2.36506C298.324 3.69078 300.473 5.49809 302.045 7.79341C303.617 10.0892 304.399 12.6149 304.399 15.3638C304.399 18.1127 303.617 20.6317 302.045 22.9204C300.473 25.2087 298.324 27.0159 295.608 28.3416C292.892 29.6673 289.903 30.33 286.643 30.33H272.913V0.376635ZM286.643 25.955C288.866 25.955 290.916 25.4876 292.784 24.553C294.653 23.618 296.126 22.341 297.205 20.7224C298.283 19.1036 298.818 17.3175 298.818 15.3638C298.818 13.4104 298.283 11.6173 297.205 9.99123C296.126 8.36565 294.653 7.08868 292.793 6.15362C290.932 5.21855 288.883 4.75116 286.643 4.75116H278.494V25.955H286.643Z" fill="#0955C1"/>
<path d="M61.3419 53V37.5605H64.6062V50.3086H71.2253V53H61.3419Z" fill="#0955C1"/>
<path d="M87.4841 45.6368C87.4841 47.3205 87.1649 48.7529 86.5267 49.9339C85.8934 51.115 85.0289 52.0172 83.9333 52.6404C82.8427 53.2586 81.6164 53.5677 80.2543 53.5677C78.8823 53.5677 77.6509 53.256 76.5603 52.6328C75.4697 52.0096 74.6078 51.1075 73.9745 49.9264C73.3412 48.7453 73.0246 47.3155 73.0246 45.6368C73.0246 43.9531 73.3412 42.5208 73.9745 41.3397C74.6078 40.1586 75.4697 39.259 76.5603 38.6408C77.6509 38.0176 78.8823 37.706 80.2543 37.706C81.6164 37.706 82.8427 38.0176 83.9333 38.6408C85.0289 39.259 85.8934 40.1586 86.5267 41.3397C87.1649 42.5208 87.4841 43.9531 87.4841 45.6368ZM84.1745 45.6368C84.1745 44.5462 84.0112 43.6265 83.6845 42.8776C83.3629 42.1287 82.908 41.5608 82.32 41.1738C81.732 40.7868 81.0434 40.5933 80.2543 40.5933C79.4653 40.5933 78.7767 40.7868 78.1887 41.1738C77.6007 41.5608 77.1433 42.1287 76.8166 42.8776C76.495 43.6265 76.3342 44.5462 76.3342 45.6368C76.3342 46.7274 76.495 47.6472 76.8166 48.396C77.1433 49.1449 77.6007 49.7128 78.1887 50.0998C78.7767 50.4868 79.4653 50.6803 80.2543 50.6803C81.0434 50.6803 81.732 50.4868 82.32 50.0998C82.908 49.7128 83.3629 49.1449 83.6845 48.396C84.0112 47.6472 84.1745 46.7274 84.1745 45.6368ZM100.14 42.9078C100.034 42.5409 99.8861 42.2167 99.6951 41.9352C99.5041 41.6488 99.2704 41.4075 98.994 41.2115C98.7226 41.0105 98.411 40.8572 98.0592 40.7517C97.7124 40.6461 97.3279 40.5933 96.9057 40.5933C96.1167 40.5933 95.4231 40.7893 94.825 41.1814C94.232 41.5734 93.7696 42.1438 93.4379 42.8927C93.1062 43.6365 92.9403 44.5462 92.9403 45.6217C92.9403 46.6973 93.1036 47.612 93.4303 48.3659C93.757 49.1197 94.2194 49.6952 94.8175 50.0923C95.4156 50.4843 96.1217 50.6803 96.9359 50.6803C97.6747 50.6803 98.3054 50.5496 98.8281 50.2883C99.3558 50.0219 99.7579 49.6475 100.034 49.165C100.316 48.6825 100.457 48.1121 100.457 47.4537L101.12 47.5517H97.1394V45.094H103.6V47.039C103.6 48.396 103.314 49.562 102.741 50.537C102.168 51.507 101.379 52.2559 100.374 52.7836C99.3684 53.3063 98.2175 53.5677 96.9208 53.5677C95.4734 53.5677 94.2018 53.2485 93.1062 52.6102C92.0105 51.9669 91.1561 51.0547 90.543 49.8736C89.9348 48.6875 89.6308 47.2803 89.6308 45.6519C89.6308 44.4004 89.8117 43.2847 90.1736 42.3046C90.5404 41.3196 91.0531 40.4853 91.7115 39.8018C92.3699 39.1182 93.1363 38.5981 94.0108 38.2412C94.8853 37.8844 95.8327 37.706 96.853 37.706C97.7275 37.706 98.5417 37.8341 99.2955 38.0904C100.049 38.3417 100.718 38.6986 101.301 39.161C101.889 39.6233 102.369 40.1737 102.741 40.812C103.113 41.4452 103.351 42.1438 103.457 42.9078H100.14ZM109.317 37.9171V53.3566H106.052V37.9171H109.317ZM120.378 42.3574C120.318 41.7493 120.059 41.2769 119.601 40.9401C119.144 40.6034 118.523 40.435 117.739 40.435C117.207 40.435 116.757 40.5104 116.39 40.6612C116.023 40.8069 115.741 41.0105 115.545 41.2718C115.354 41.5332 115.259 41.8297 115.259 42.1614C115.249 42.4378 115.307 42.6791 115.432 42.8851C115.563 43.0912 115.741 43.2696 115.968 43.4204C116.194 43.5661 116.455 43.6943 116.752 43.8049C117.048 43.9104 117.365 44.0009 117.702 44.0763L119.089 44.408C119.762 44.5588 120.38 44.7598 120.943 45.0111C121.506 45.2624 121.994 45.5715 122.406 45.9384C122.818 46.3053 123.137 46.7375 123.363 47.235C123.594 47.7326 123.713 48.303 123.718 48.9464C123.713 49.8912 123.471 50.7104 122.994 51.404C122.521 52.0926 121.838 52.6278 120.943 53.0098C120.054 53.3867 118.981 53.5752 117.724 53.5752C116.478 53.5752 115.392 53.3842 114.467 53.0022C113.548 52.6203 112.829 52.0549 112.311 51.306C111.799 50.5521 111.53 49.6198 111.505 48.5091H114.663C114.699 49.0268 114.847 49.459 115.108 49.8058C115.375 50.1475 115.729 50.4064 116.171 50.5823C116.619 50.7532 117.124 50.8386 117.687 50.8386C118.239 50.8386 118.719 50.7582 119.126 50.5974C119.539 50.4365 119.858 50.2129 120.084 49.9264C120.31 49.6399 120.423 49.3107 120.423 48.9388C120.423 48.592 120.32 48.3005 120.114 48.0643C119.913 47.8281 119.616 47.6271 119.224 47.4612C118.837 47.2954 118.362 47.1446 117.8 47.0089L116.118 46.5867C114.817 46.2701 113.789 45.775 113.035 45.1016C112.281 44.4281 111.907 43.5209 111.912 42.38C111.907 41.4452 112.156 40.6285 112.658 39.9299C113.166 39.2313 113.862 38.686 114.746 38.294C115.631 37.902 116.636 37.706 117.762 37.706C118.908 37.706 119.908 37.902 120.762 38.294C121.622 38.686 122.29 39.2313 122.768 39.9299C123.245 40.6285 123.491 41.4377 123.506 42.3574H120.378ZM125.325 40.6084V37.9171H138.006V40.6084H133.279V53.3566H130.052V40.6084H125.325ZM143.358 37.9171V53.3566H140.094V37.9171H143.358ZM159.666 43.3224H156.364C156.304 42.8952 156.181 42.5157 155.995 42.184C155.809 41.8473 155.57 41.5608 155.279 41.3246C154.987 41.0884 154.651 40.9075 154.269 40.7818C153.892 40.6562 153.482 40.5933 153.04 40.5933C152.241 40.5933 151.545 40.7919 150.952 41.1889C150.359 41.5809 149.899 42.1539 149.572 42.9078C149.245 43.6566 149.082 44.5663 149.082 45.6368C149.082 46.7375 149.245 47.6622 149.572 48.4111C149.904 49.16 150.366 49.7254 150.959 50.1073C151.552 50.4893 152.238 50.6803 153.017 50.6803C153.454 50.6803 153.859 50.6225 154.231 50.5069C154.608 50.3913 154.942 50.2229 155.234 50.0018C155.525 49.7756 155.766 49.5017 155.957 49.1801C156.153 48.8584 156.289 48.4915 156.364 48.0794L159.666 48.0945C159.581 48.8031 159.367 49.4866 159.026 50.145C158.689 50.7984 158.234 51.3839 157.661 51.9016C157.093 52.4142 156.415 52.8213 155.626 53.1229C154.842 53.4194 153.955 53.5677 152.964 53.5677C151.587 53.5677 150.356 53.256 149.27 52.6328C148.19 52.0096 147.335 51.1075 146.707 49.9264C146.084 48.7453 145.772 47.3155 145.772 45.6368C145.772 43.9531 146.089 42.5208 146.722 41.3397C147.356 40.1586 148.215 39.259 149.301 38.6408C150.386 38.0176 151.607 37.706 152.964 37.706C153.859 37.706 154.688 37.8316 155.452 38.0829C156.221 38.3342 156.902 38.7011 157.495 39.1836C158.088 39.661 158.571 40.2465 158.943 40.9401C159.32 41.6337 159.561 42.4278 159.666 43.3224ZM177.158 42.9078C177.053 42.5409 176.905 42.2167 176.714 41.9352C176.523 41.6488 176.289 41.4075 176.013 41.2115C175.741 41.0105 175.43 40.8572 175.078 40.7517C174.731 40.6461 174.346 40.5933 173.924 40.5933C173.135 40.5933 172.442 40.7893 171.844 41.1814C171.25 41.5734 170.788 42.1438 170.456 42.8927C170.125 43.6365 169.959 44.5462 169.959 45.6217C169.959 46.6973 170.122 47.612 170.449 48.3659C170.776 49.1197 171.238 49.6952 171.836 50.0923C172.434 50.4843 173.14 50.6803 173.954 50.6803C174.693 50.6803 175.324 50.5496 175.847 50.2883C176.374 50.0219 176.776 49.6475 177.053 49.165C177.334 48.6825 177.475 48.1121 177.475 47.4537L178.138 47.5517H174.158V45.094H180.619V47.039C180.619 48.396 180.332 49.562 179.759 50.537C179.186 51.507 178.397 52.2559 177.392 52.7836C176.387 53.3063 175.236 53.5677 173.939 53.5677C172.492 53.5677 171.22 53.2485 170.125 52.6102C169.029 51.9669 168.175 51.0547 167.561 49.8736C166.953 48.6875 166.649 47.2803 166.649 45.6519C166.649 44.4004 166.83 43.2847 167.192 42.3046C167.559 41.3196 168.072 40.4853 168.73 39.8018C169.388 39.1182 170.155 38.5981 171.029 38.2412C171.904 37.8844 172.851 37.706 173.871 37.706C174.746 37.706 175.56 37.8341 176.314 38.0904C177.068 38.3417 177.736 38.6986 178.319 39.161C178.907 39.6233 179.387 40.1737 179.759 40.812C180.131 41.4452 180.37 42.1438 180.475 42.9078H177.158ZM183.071 53.3566V37.9171H189.162C190.328 37.9171 191.323 38.1256 192.147 38.5428C192.977 38.9549 193.607 39.5404 194.04 40.2993C194.477 41.0532 194.696 41.9403 194.696 42.9605C194.696 43.9858 194.474 44.8678 194.032 45.6067C193.59 46.3404 192.949 46.9033 192.11 47.2954C191.275 47.6874 190.265 47.8834 189.079 47.8834H185.001V45.2599H188.551C189.175 45.2599 189.692 45.1744 190.104 45.0035C190.517 44.8327 190.823 44.5763 191.024 44.2346C191.23 43.8928 191.333 43.4681 191.333 42.9605C191.333 42.4479 191.23 42.0157 191.024 41.6638C190.823 41.312 190.514 41.0457 190.097 40.8647C189.685 40.6788 189.165 40.5858 188.536 40.5858H186.335V53.3566H183.071ZM191.409 46.3304L195.246 53.3566H191.642L187.888 46.3304H191.409ZM211.191 45.6368C211.191 47.3205 210.871 48.7529 210.233 49.9339C209.6 51.115 208.735 52.0172 207.64 52.6404C206.549 53.2586 205.323 53.5677 203.961 53.5677C202.589 53.5677 201.357 53.256 200.267 52.6328C199.176 52.0096 198.314 51.1075 197.681 49.9264C197.048 48.7453 196.731 47.3155 196.731 45.6368C196.731 43.9531 197.048 42.5208 197.681 41.3397C198.314 40.1586 199.176 39.259 200.267 38.6408C201.357 38.0176 202.589 37.706 203.961 37.706C205.323 37.706 206.549 38.0176 207.64 38.6408C208.735 39.259 209.6 40.1586 210.233 41.3397C210.871 42.5208 211.191 43.9531 211.191 45.6368ZM207.881 45.6368C207.881 44.5462 207.718 43.6265 207.391 42.8776C207.069 42.1287 206.614 41.5608 206.026 41.1738C205.438 40.7868 204.75 40.5933 203.961 40.5933C203.172 40.5933 202.483 40.7868 201.895 41.1738C201.307 41.5608 200.85 42.1287 200.523 42.8776C200.201 43.6265 200.041 44.5462 200.041 45.6368C200.041 46.7274 200.201 47.6472 200.523 48.396C200.85 49.1449 201.307 49.7128 201.895 50.0998C202.483 50.4868 203.172 50.6803 203.961 50.6803C204.75 50.6803 205.438 50.4868 206.026 50.0998C206.614 49.7128 207.069 49.1449 207.391 48.396C207.718 47.6472 207.881 46.7274 207.881 45.6368ZM223.145 37.9171H226.41V47.9437C226.41 49.0695 226.141 50.0546 225.603 50.8989C225.07 51.7433 224.324 52.4016 223.364 52.8741C222.404 53.3415 221.286 53.5752 220.009 53.5752C218.727 53.5752 217.607 53.3415 216.647 52.8741C215.687 52.4016 214.94 51.7433 214.408 50.8989C213.875 50.0546 213.609 49.0695 213.609 47.9437V37.9171H216.873V47.6648C216.873 48.2528 217.001 48.7755 217.257 49.2328C217.519 49.6902 217.886 50.0495 218.358 50.3109C218.831 50.5722 219.381 50.7029 220.009 50.7029C220.642 50.7029 221.193 50.5722 221.66 50.3109C222.133 50.0495 222.497 49.6902 222.753 49.2328C223.015 48.7755 223.145 48.2528 223.145 47.6648V37.9171ZM229.095 53.3566V37.9171H235.187C236.358 37.9171 237.355 38.1407 238.18 38.588C239.004 39.0303 239.632 39.646 240.064 40.435C240.502 41.2191 240.72 42.1237 240.72 43.149C240.72 44.1743 240.499 45.0789 240.057 45.863C239.614 46.647 238.974 47.2577 238.134 47.6949C237.3 48.1322 236.29 48.3508 235.104 48.3508H231.221V45.7348H234.576C235.204 45.7348 235.722 45.6268 236.129 45.4106C236.541 45.1895 236.848 44.8854 237.049 44.4984C237.255 44.1064 237.358 43.6566 237.358 43.149C237.358 42.6364 237.255 42.1891 237.049 41.8071C236.848 41.4201 236.541 41.1211 236.129 40.91C235.717 40.6939 235.194 40.5858 234.561 40.5858H232.36V53.3566H229.095Z" fill="#0955C1"/>
<mask id="mask0_1004_1276" style="mask-type:luminance" maskUnits="userSpaceOnUse" x="0" y="0" width="45" height="52">
<path d="M43.621 44.7329C30.7267 51.1897 18.4133 53.1604 12.7752 48.8983C9.11207 46.1291 8.93083 41.2292 11.5948 35.463C4.35489 32.7539 -0.0519128 29.1585 0.000461696 25.2431C0.0526633 21.404 4.38065 17.9384 11.4405 15.357C8.93861 9.73814 9.18415 4.97598 12.7752 2.2612C18.4133 -2.00086 30.7267 -0.0299301 43.621 6.42684V3.31743C43.621 3.03074 43.9311 2.79631 44.3103 2.79631C44.6893 2.79631 45 3.03074 45 3.31743V47.8424C45 48.1291 44.6898 48.3636 44.3108 48.3636C43.9316 48.3636 43.621 48.1291 43.621 47.8424V44.7329ZM19.6111 30.0654L20.3713 28.3632L20.6282 28.4286L19.8681 30.1308L19.6111 30.0654ZM19.0038 33.1431C19.0278 33.0909 19.1035 33.063 19.1728 33.0813C19.2416 33.0992 19.2784 33.1567 19.2544 33.2089L18.7024 34.4107C18.6786 34.4629 18.6032 34.4905 18.5341 34.4722C18.4645 34.4542 18.4281 34.397 18.4518 34.3447L19.0038 33.1431ZM19.7441 33.3374C19.7681 33.285 19.8438 33.2574 19.9129 33.2754C19.982 33.2937 20.019 33.351 19.9947 33.4032L19.443 34.6048C19.419 34.657 19.3433 34.6848 19.2742 34.6664C19.2051 34.6485 19.1681 34.5914 19.1924 34.539L19.7441 33.3374ZM20.4845 33.5317C20.5083 33.4793 20.5839 33.4517 20.6533 33.4697C20.7226 33.488 20.7591 33.5452 20.7353 33.5973L20.1834 34.7991C20.1594 34.8515 20.0834 34.879 20.0146 34.8609C19.9452 34.8426 19.9087 34.7857 19.9325 34.7335L20.4845 33.5317ZM17.523 32.7544C17.5473 32.7026 17.623 32.6746 17.6918 32.6927C17.7612 32.7109 17.7979 32.7681 17.7739 32.8205L17.2222 34.022C17.1982 34.0746 17.1225 34.1019 17.0531 34.0838C16.9841 34.0657 16.9476 34.0086 16.9714 33.9564L17.523 32.7544ZM16.7912 32.542C16.815 32.4896 16.891 32.4618 16.96 32.4799C17.0294 32.4983 17.0659 32.5555 17.0419 32.6077L16.4901 33.8093C16.4662 33.8616 16.3909 33.8893 16.3216 33.8712C16.2523 33.8532 16.2156 33.7958 16.2393 33.7436L16.7912 32.542ZM16.0509 32.3479C16.0749 32.2955 16.1506 32.2677 16.22 32.2859C16.289 32.304 16.3257 32.3611 16.302 32.4135L15.7503 33.6149C15.7258 33.6675 15.6501 33.6951 15.5813 33.6769C15.512 33.6588 15.4752 33.6017 15.4992 33.5493L16.0509 32.3479ZM18.2634 32.9489C18.2872 32.8966 18.3631 32.8689 18.4322 32.887C18.5015 32.9052 18.5383 32.9624 18.5142 33.0148L17.9626 34.2164C17.9386 34.2686 17.8628 34.2963 17.7938 34.2781C17.7244 34.2599 17.6874 34.2029 17.7117 34.1505L18.2634 32.9489ZM15.6133 31.6978L14.6145 33.8731C14.5906 33.9257 14.627 33.9825 14.6961 34.0007L20.4521 35.5112C20.5215 35.5293 20.5967 35.5016 20.6207 35.449L21.62 33.2737C21.6437 33.2213 21.6075 33.1641 21.5381 33.1459L15.7824 31.6356C15.7131 31.6176 15.6376 31.6452 15.6133 31.6978ZM19.7552 30.3125C19.8744 30.3878 19.9198 30.5108 19.8685 30.6223C19.8174 30.7338 19.6804 30.8092 19.5253 30.8127L19.4584 30.9583C19.4344 31.0105 19.3587 31.0383 19.2894 31.02C19.2385 31.0068 19.1823 31.0202 19.151 31.0535L19.2025 31.0448C19.2502 31.0362 19.3031 31.0481 19.3364 31.0786L19.3769 31.1168C19.4089 31.0775 19.4734 31.0592 19.5329 31.0752C19.6023 31.0931 19.639 31.1502 19.6148 31.2026C19.6008 31.2328 19.5812 31.26 19.5571 31.2839L21.254 32.8592L20.7787 32.7344L19.3328 31.3921C19.1917 31.4156 19.0422 31.3765 18.9509 31.292L16.7158 31.6682L16.2405 31.5434L18.8631 31.102C18.8641 31.0715 18.8705 31.0413 18.8847 31.0109C18.9376 30.8949 19.0816 30.8166 19.2436 30.8146L19.2747 30.7466C19.1554 30.6714 19.1098 30.5481 19.1613 30.4368C19.2122 30.3255 19.3492 30.2499 19.5043 30.2467L19.5163 30.2205C19.54 30.1681 19.6157 30.1406 19.6851 30.1586C19.7544 30.1769 19.7911 30.234 19.7672 30.2864L19.7552 30.3125ZM28.3253 47.5717C28.316 47.5443 28.304 47.5171 28.2883 47.4904C28.1342 47.2255 27.7239 47.1048 27.3736 47.2213C27.0232 47.3378 26.8635 47.648 27.0176 47.9129C27.033 47.9395 27.0514 47.9647 27.0719 47.9886L26.923 48.038L26.8679 47.9436L26.1687 48.176L26.1062 48.0686L25.9519 48.1199L25.8135 47.8819L25.9678 47.8308L25.6309 47.2519L25.8076 46.2408L27.0416 45.4042L27.6031 45.2176L27.4441 44.9446L27.62 44.886L28.8298 46.9654L29.015 46.9038L27.7106 44.6617L37.5612 41.3865C36.8845 40.9773 36.2088 40.5567 35.5351 40.1248C26.6126 39.5001 18.6522 37.9579 12.5387 35.8066C10.2978 40.7982 10.4613 44.9635 13.5628 47.3081C18.4572 51.008 29.3472 49.178 41.0691 43.4L40.723 43.2109L38.2548 44.0386L38.3684 44.2378L38.2187 44.2865C38.2099 44.2589 38.1979 44.2317 38.1824 44.2049C38.0311 43.9391 37.6219 43.8161 37.2704 43.9306C36.9188 44.045 36.7561 44.3545 36.9078 44.6201C36.9229 44.6469 36.9411 44.6723 36.9612 44.6962L36.919 44.7099L36.9237 44.7181L36.774 44.7667C36.7652 44.7394 36.7532 44.7119 36.7377 44.6851C36.5864 44.4195 36.1772 44.2965 35.8257 44.411C35.4743 44.5255 35.3114 44.8349 35.4628 45.1005C35.4783 45.1274 35.4964 45.1527 35.5165 45.1767L35.3671 45.2251L35.2585 45.0348L32.9329 45.808L33.0465 46.0073L32.8971 46.0559C32.888 46.0284 32.876 46.0011 32.8608 45.9743C32.7092 45.7086 32.3001 45.5855 31.9487 45.7C31.5971 45.8147 31.4345 46.124 31.5859 46.3896C31.601 46.4164 31.6192 46.4418 31.6395 46.4657L31.5971 46.4795L31.6018 46.4877L31.4524 46.5362C31.4433 46.5088 31.4313 46.4815 31.4158 46.4547C31.2645 46.189 30.8553 46.0659 30.504 46.1804C30.1524 46.2949 29.9898 46.6044 30.1412 46.87C30.1564 46.8968 30.1745 46.9222 30.1949 46.9461L30.0452 46.9948L29.9366 46.8042L29.8381 46.837L29.892 46.9296L28.5933 47.3615L28.5395 47.2689L28.3613 47.328L28.4743 47.5222L28.3253 47.5717ZM27.0859 47.0216L26.7273 47.1409L26.7549 47.1885L27.1136 47.0692L27.0859 47.0216ZM26.9897 46.8563L26.7057 46.3683L25.9884 46.6066L25.8805 47.225C26.2248 47.1105 26.645 46.9709 26.9897 46.8563ZM27.13 47.8754C27.0031 47.6571 27.1342 47.4024 27.423 47.3063C27.7117 47.2104 28.049 47.3094 28.1759 47.5276C28.3028 47.746 28.1717 48.0008 27.8829 48.0969C27.594 48.1929 27.2571 48.0938 27.13 47.8754ZM27.7839 47.9269C27.9483 47.8723 28.0232 47.7267 27.951 47.6025C27.8787 47.4782 27.6862 47.4217 27.5218 47.4763C27.3577 47.531 27.2826 47.6764 27.3549 47.8006C27.4272 47.9249 27.6198 47.9815 27.7839 47.9269ZM27.545 47.7374C27.5189 47.6924 27.546 47.6398 27.6055 47.62C27.6651 47.6002 27.7347 47.6206 27.7608 47.6658C27.7871 47.7108 27.7599 47.7634 27.7003 47.7832C27.6408 47.803 27.5712 47.7825 27.545 47.7374ZM30.2539 46.8333C30.1292 46.6142 30.2627 46.3601 30.5525 46.2658C30.8421 46.1713 31.1782 46.2725 31.3031 46.4914C31.4281 46.7105 31.2943 46.9644 31.0045 47.0589C30.715 47.1533 30.3788 47.0522 30.2539 46.8333ZM30.9075 46.8883C31.0724 46.8346 31.1486 46.6896 31.0775 46.5649C31.0065 46.4403 30.8146 46.3827 30.6497 46.4362C30.4849 46.4901 30.4084 46.6351 30.4795 46.7598C30.5505 46.8844 30.7426 46.942 30.9075 46.8883ZM30.7274 46.5827C30.7867 46.5623 30.8566 46.5823 30.8833 46.6271C30.91 46.6721 30.8835 46.7247 30.8242 46.7451C30.7649 46.7651 30.6951 46.7453 30.6684 46.7005C30.6417 46.6555 30.6681 46.6029 30.7274 46.5827ZM31.6986 46.3528C31.5739 46.134 31.7074 45.8799 31.9972 45.7854C32.2868 45.6909 32.6232 45.7921 32.7478 46.011C32.8728 46.2301 32.739 46.4842 32.4495 46.5786C32.1596 46.6729 31.8235 46.572 31.6986 46.3528ZM32.3522 46.4078C32.5171 46.3543 32.5933 46.2092 32.5223 46.0845C32.4512 45.9598 32.2593 45.9023 32.0944 45.956C31.9296 46.0097 31.8534 46.1547 31.9244 46.2793C31.9955 46.404 32.1874 46.4618 32.3522 46.4078ZM32.1151 46.2173C32.0893 46.1721 32.117 46.1197 32.1768 46.1002C32.2364 46.0806 32.3057 46.1016 32.3314 46.1467C32.3574 46.1919 32.3297 46.2443 32.2699 46.2638C32.2101 46.2833 32.1408 46.2623 32.1151 46.2173ZM35.5758 45.0638C35.4511 44.8447 35.5846 44.5907 35.8744 44.4964C36.164 44.4019 36.5001 44.5029 36.6251 44.7219C36.7497 44.9411 36.6162 45.195 36.3264 45.2894C36.0366 45.3838 35.7007 45.2828 35.5758 45.0638ZM36.2292 45.1188C36.394 45.0651 36.4705 44.9202 36.3994 44.7953C36.3284 44.6708 36.1363 44.6133 35.9715 44.6668C35.8066 44.7205 35.7303 44.8657 35.8014 44.9903C35.8724 45.1148 36.0643 45.1725 36.2292 45.1188ZM35.9923 44.9281C35.9665 44.8829 35.9939 44.8305 36.0537 44.811C36.1135 44.7916 36.1829 44.8123 36.2086 44.8575C36.2343 44.9027 36.2066 44.9551 36.1471 44.9746C36.0873 44.994 36.0179 44.9733 35.9923 44.9281ZM37.0205 44.5834C36.8958 44.3643 37.0293 44.1104 37.3191 44.016C37.6087 43.9215 37.9448 44.0226 38.0697 44.2415C38.1944 44.4606 38.0609 44.7147 37.7711 44.809C37.4813 44.9034 37.1454 44.8023 37.0205 44.5834ZM37.6739 44.6384C37.8387 44.5847 37.9152 44.4397 37.8441 44.3151C37.7731 44.1904 37.5812 44.1328 37.4162 44.1866C37.2515 44.2403 37.175 44.3852 37.2461 44.5099C37.3171 44.6346 37.509 44.6921 37.6739 44.6384ZM37.496 44.3323C37.5555 44.3121 37.6253 44.3321 37.6518 44.3769C37.6785 44.4218 37.6523 44.4745 37.593 44.4947C37.5334 44.5149 37.4639 44.4949 37.4372 44.4501C37.4105 44.4052 37.4367 44.3524 37.496 44.3323ZM13.7286 14.2615C13.6292 14.2934 13.5175 14.2661 13.4589 14.2018L13.3063 14.2502C13.4011 14.378 13.6099 14.434 13.7928 14.3756C13.9742 14.3175 14.0672 14.1654 14.0126 14.0248L13.8592 14.0736C13.8803 14.1501 13.8272 14.2299 13.7286 14.2615ZM16.0906 12.5873L16.1393 12.6738L15.8948 12.752L15.927 12.8097L16.1715 12.7316L16.22 12.8183L15.9755 12.8966L16.0215 12.9798L16.191 12.9255L16.33 13.174L16.3464 13.2031L13.1522 14.2231L13.1887 14.2879L13.2277 14.3563L12.2453 14.67C12.293 14.7866 12.342 14.9035 12.3927 15.0211C18.5679 12.9037 26.6491 11.4357 35.7051 10.9262C37.4859 9.79034 39.2793 8.7332 41.0691 7.75976C29.3475 1.98177 18.4572 0.151577 13.5628 3.85156C11.0762 5.73141 10.4786 8.78155 11.4943 12.4901L15.1045 11.3379L15.7092 12.4202L11.8567 13.6498L11.8809 13.7187L15.7454 12.4853L15.8458 12.6651L16.0906 12.5873ZM13.6897 14.1928C13.7382 14.1773 13.7661 14.1408 13.7649 14.1038L13.5535 14.1714C13.5873 14.1982 13.6417 14.2082 13.6897 14.1928ZM14.5508 13.9988C14.4524 14.0306 14.3397 14.0033 14.2809 13.9386L14.1283 13.9877C14.2235 14.1156 14.4318 14.1714 14.6148 14.113C14.797 14.0547 14.8897 13.9025 14.8345 13.762L14.6814 13.8113C14.702 13.8876 14.6496 13.9677 14.5508 13.9988ZM14.5123 13.9302C14.5607 13.9151 14.5891 13.8787 14.5871 13.8411L14.3754 13.9087C14.4095 13.9358 14.4633 13.9456 14.5123 13.9302ZM15.373 13.7363C15.274 13.7676 15.1618 13.7415 15.1035 13.6765L14.9507 13.7252C15.0452 13.8528 15.2542 13.9091 15.4365 13.8506C15.619 13.792 15.7121 13.6404 15.6565 13.4998L15.5036 13.5483C15.5241 13.6254 15.4723 13.7045 15.373 13.7363ZM15.3348 13.6671C15.3828 13.6524 15.411 13.6158 15.4101 13.5789L15.1979 13.6465C15.2322 13.673 15.2858 13.6828 15.3348 13.6671ZM23.283 12.05C23.1786 12.0691 23.0735 12.0287 23.0301 11.9583L22.8684 11.9875C22.9351 12.1249 23.1289 12.2059 23.3219 12.1706C23.5138 12.1356 23.6379 11.9969 23.6139 11.8515L23.4525 11.881C23.4565 11.9589 23.3871 12.0311 23.283 12.05ZM25.9727 10.6873L26.0019 10.7786L25.7436 10.8259L25.7634 10.8865L26.0214 10.8395L26.0506 10.9312L25.7924 10.9783L25.8203 11.0658L25.9996 11.0331L26.0832 11.2957L26.0927 11.3263L22.7227 11.9415L22.7447 12.01L22.7682 12.0825L19.6503 12.6516L19.6272 12.5793L19.6055 12.5106L16.598 13.0598L16.5884 13.0292L16.5044 12.7668L16.6835 12.7342L16.5167 12.2123L21.0298 11.3883L21.1967 11.9104L21.3071 11.8898L21.1406 11.3681L25.6538 10.5443L25.7145 10.7341L25.9727 10.6873ZM23.2599 11.9778C23.3107 11.9685 23.3462 11.9361 23.353 11.8991L23.1296 11.9398C23.1575 11.9706 23.209 11.9871 23.2599 11.9778ZM24.1507 11.8917C24.0466 11.911 23.9412 11.8704 23.8971 11.7994L23.7367 11.8291C23.8029 11.9667 23.9961 12.0476 24.1892 12.0122C24.3817 11.9769 24.5055 11.8385 24.4817 11.6929L24.3203 11.7224C24.3237 11.8005 24.2549 11.873 24.1507 11.8917ZM24.1275 11.8193C24.1784 11.81 24.2144 11.7776 24.2206 11.7406L23.9971 11.7815C24.0251 11.8122 24.0762 11.8287 24.1275 11.8193ZM25.0184 11.7333C24.9139 11.7521 24.809 11.712 24.7654 11.6411L24.6039 11.6707C24.6701 11.8083 24.8639 11.8891 25.0569 11.8539C25.249 11.8187 25.3732 11.68 25.3489 11.5346L25.1878 11.5641C25.1915 11.642 25.1228 11.7142 25.0184 11.7333ZM24.9955 11.6605C25.0462 11.6516 25.0817 11.6192 25.0888 11.5824L24.8646 11.6233C24.8928 11.6537 24.9442 11.67 24.9955 11.6605ZM17.4598 13.1133C17.3557 13.1323 17.2503 13.0916 17.207 13.0213L17.0453 13.0503C17.112 13.1883 17.3057 13.269 17.4986 13.2339C17.6914 13.1987 17.815 13.0599 17.7913 12.9148L17.6298 12.944C17.6333 13.0218 17.5647 13.0939 17.4598 13.1133ZM17.4368 13.0409C17.4878 13.0316 17.5233 12.9996 17.5299 12.9621L17.3067 13.0029C17.3349 13.034 17.3864 13.0502 17.4368 13.0409ZM18.3276 12.955C18.2235 12.9738 18.1176 12.9337 18.0745 12.8627L17.9131 12.8922C17.9797 13.03 18.1735 13.1107 18.366 13.0755C18.5591 13.0403 18.6829 12.9016 18.6586 12.7562L18.4971 12.7857C18.501 12.8636 18.432 12.9359 18.3276 12.955ZM18.3046 12.8825C18.3557 12.8731 18.3913 12.8409 18.3974 12.8038L18.1737 12.8443C18.2024 12.8753 18.2538 12.8918 18.3046 12.8825ZM19.1954 12.7964C19.0912 12.8155 18.9854 12.7751 18.9427 12.7042L18.7808 12.7338C18.8474 12.8716 19.0414 12.9521 19.2338 12.917C19.4271 12.8818 19.5498 12.7433 19.5266 12.5979L19.3646 12.6271C19.3688 12.7053 19.2992 12.7771 19.1954 12.7964ZM19.172 12.724C19.223 12.7147 19.2591 12.6823 19.2652 12.6455L19.0417 12.6862C19.0696 12.7169 19.1211 12.7331 19.172 12.724ZM20.7537 10.1573L25.2669 9.33364L25.6316 10.4758L21.1185 11.2994L20.7537 10.1573ZM16.1298 11.0014L20.643 10.1775L21.0076 11.3198L16.4948 12.1436L16.1298 11.0014ZM26.3014 10.8965L26.3463 10.892L26.3669 11.0083L26.485 10.9962L26.4644 10.8799L26.6198 10.8641L26.6665 11.1281L26.4406 11.1507L26.4573 11.244L26.4632 11.2751L27.8182 11.1379L27.671 10.3067L27.1781 10.3569L27.1655 10.2869L35.3803 9.45308L35.3229 9.13012L35.0279 9.16011L34.9908 8.95377L34.8215 8.97063L34.3613 8.4974L34.474 8.48597L34.4446 8.32295L26.5462 9.12456L26.5754 9.2879L26.6983 9.27471L26.789 9.78569L26.4347 9.82183L26.5756 10.6156L26.4203 10.6313L26.4065 10.5538L26.2887 10.566L26.3022 10.6434L26.2571 10.6479L26.2738 10.741L26.3184 10.7365L26.3296 10.7985L26.2849 10.8031L26.3014 10.8965ZM32.8182 9.09882L32.7515 8.72393L33.5529 8.64244L33.6193 9.01748L32.8182 9.09882ZM32.5641 9.12456L31.7887 9.20323L31.7221 8.8284L32.4975 8.74967L32.5641 9.12456ZM33.8738 8.99174L33.8072 8.61652L34.2413 8.5728L34.5794 8.92007L33.8738 8.99174ZM26.592 10.7088L26.6031 10.7708L26.4478 10.7866L26.4367 10.7245L26.592 10.7088ZM32.8341 10.8355C32.7278 10.8462 32.6288 10.7975 32.5945 10.7241L32.4299 10.7408C32.4777 10.8829 32.6589 10.9784 32.8559 10.9584C33.0521 10.9384 33.1942 10.8103 33.1903 10.6636L33.0257 10.6803C33.019 10.7578 32.9402 10.8247 32.8341 10.8355ZM32.8209 10.7616C32.8728 10.7563 32.9125 10.7269 32.9242 10.6906L32.6964 10.7138C32.7199 10.7465 32.7689 10.7669 32.8209 10.7616ZM33.7182 10.7456C33.6127 10.7564 33.5132 10.708 33.4792 10.6343L33.3148 10.651C33.3621 10.7932 33.5438 10.8886 33.7405 10.8686C33.9368 10.8486 34.0789 10.7205 34.075 10.5738L33.9104 10.5906C33.9033 10.6684 33.8244 10.7345 33.7182 10.7456ZM33.7055 10.6719C33.7575 10.6667 33.7977 10.6369 33.8085 10.6008L33.5808 10.624C33.6051 10.6568 33.6533 10.6771 33.7055 10.6719ZM34.6039 10.6558C34.4968 10.6664 34.3979 10.6182 34.3641 10.5445L34.1989 10.5614C34.2467 10.7034 34.4285 10.7991 34.6252 10.7788C34.8217 10.7589 34.9635 10.6306 34.9594 10.4843L34.795 10.5008C34.7881 10.5788 34.7094 10.6455 34.6039 10.6558ZM34.5902 10.5821C34.6421 10.5769 34.682 10.5475 34.6935 10.511L34.4655 10.5341C34.4895 10.5669 34.538 10.5873 34.5902 10.5821ZM27.3128 11.3957C27.2067 11.4064 27.1073 11.3579 27.0742 11.2846L26.909 11.301C26.9563 11.4429 27.1381 11.5387 27.3351 11.5187C27.5313 11.4987 27.6734 11.3702 27.6695 11.2238L27.5043 11.2407C27.4978 11.3185 27.4194 11.3849 27.3128 11.3957ZM27.2996 11.322C27.3515 11.3168 27.3917 11.2874 27.4024 11.2511L27.1751 11.274C27.1992 11.3065 27.2476 11.3272 27.2996 11.322ZM28.1975 11.3059C28.0913 11.317 27.9921 11.2684 27.9583 11.1942L27.7942 11.2113C27.8412 11.3535 28.023 11.4488 28.2192 11.4288C28.4157 11.409 28.5578 11.2807 28.5536 11.1342L28.3888 11.1512C28.3824 11.2288 28.3035 11.2952 28.1975 11.3059ZM28.1844 11.2322C28.2362 11.227 28.2763 11.1975 28.2876 11.1612L28.06 11.1842C28.0837 11.2168 28.1326 11.2373 28.1844 11.2322ZM29.0819 11.2164C28.9757 11.2273 28.8768 11.1787 28.8432 11.1048L28.6786 11.1214C28.7259 11.2637 28.9076 11.3591 29.1039 11.3392C29.3004 11.3192 29.4424 11.1909 29.4386 11.0444L29.2734 11.0609C29.2671 11.139 29.1882 11.2053 29.0819 11.2164ZM29.0691 11.1423C29.1213 11.1371 29.161 11.1077 29.1723 11.0714L28.9442 11.0948C28.9681 11.1273 29.0174 11.1474 29.0691 11.1423ZM30.6963 9.9998L30.847 10.8494L30.7544 10.8586L30.6038 10.0093L27.7636 10.2974L27.9111 11.1281L29.5287 10.964L29.5412 11.034L29.5542 11.1077L32.3177 10.8277L32.3045 10.7536L32.2919 10.6836L35.602 10.348L35.5964 10.3165L35.5802 10.2237L35.5182 10.2296L35.4959 10.1055L35.6427 10.0907L35.5733 9.70024L35.4273 9.71507L35.3925 9.52325L30.6963 9.9998ZM30.7512 8.48427L34.1614 8.13832L34.1835 8.26239L30.7732 8.60854L30.7512 8.48427ZM43.621 9.07269C43.0847 8.78488 42.5496 8.50537 42.0155 8.23391C40.5233 9.04192 39.025 9.91088 37.5298 10.8375C39.5208 10.7551 41.5537 10.7175 43.621 10.7303V9.07269ZM43.621 11.5509C41.065 11.5348 38.5631 11.5935 36.1341 11.72C34.2374 12.9439 32.352 14.2591 30.4988 15.6599C26.2116 18.9011 22.5281 22.2742 19.5545 25.5798C22.5281 28.8851 26.2116 32.2586 30.4988 35.4997C31.5252 36.2755 32.5617 37.0252 33.6043 37.7475C36.7593 38.0179 40.0561 38.1748 43.4507 38.2009L43.621 38.2016V11.5509ZM43.621 40.4295L43.42 40.4288C41.3761 40.4131 39.3665 40.3484 37.3987 40.2407C38.937 41.1978 40.4797 42.094 42.0153 42.9257C42.5491 42.654 43.0847 42.3747 43.621 42.0869V40.4295ZM12.5718 33.5378C13.9805 30.9861 15.9017 28.3 18.2852 25.5798C15.4247 22.3152 13.2308 19.1 11.7886 16.1071C5.75232 18.3708 2.09829 21.3136 2.05473 24.5552C2.00841 27.9765 5.99095 31.1272 12.5718 33.5378ZM34.3199 11.8278C25.8455 12.3958 18.3548 13.8002 12.7288 15.7667C14.066 18.6051 16.1616 21.6971 18.9222 24.8655C21.8905 21.5821 25.522 18.2619 29.7313 15.0798C31.2409 13.9386 32.7741 12.8538 34.3199 11.8278ZM13.5062 33.8695C18.4454 35.5647 24.7137 36.8594 31.7684 37.5761C31.0853 37.0888 30.406 36.59 29.7313 36.0799C25.522 32.8977 21.8905 29.5778 18.9222 26.2943C16.6485 28.9042 14.8255 31.4624 13.5062 33.8695Z" fill="white"/>
</mask>
<g mask="url(#mask0_1004_1276)">
<path d="M-29.9521 110.909H419.811V-59.7488H-29.9521V110.909Z" fill="url(#paint0_linear_1004_1276)"/>
</g>
<defs>
<linearGradient id="paint0_linear_1004_1276" x1="5.81116" y1="27.6837" x2="43.0466" y2="74.5703" gradientUnits="userSpaceOnUse">
<stop stop-color="#046DD6"/>
<stop offset="1" stop-color="#0C37AD"/>
</linearGradient>
</defs>
</svg>
