<svg width="103" height="120" viewBox="0 0 103 120" fill="none" xmlns="http://www.w3.org/2000/svg">
<mask id="mask0_889_2247" style="mask-type:luminance" maskUnits="userSpaceOnUse" x="0" y="0" width="103" height="120">
<path d="M99.8436 104.926C70.3301 120.071 42.146 124.693 29.2409 114.696C20.8565 108.201 20.4417 96.7073 26.5393 83.1821C9.96786 76.8275 -0.118823 68.3942 0.00105677 59.2102C0.120541 50.2051 10.0268 42.0763 26.186 36.0214C20.4595 22.8417 21.0215 11.6716 29.2409 5.30379C42.146 -4.69333 70.3301 -0.0703125 99.8436 15.0747V7.78129C99.8436 7.10881 100.553 6.55893 101.421 6.55893C102.289 6.55893 103 7.10881 103 7.78129V112.219C103 112.892 102.29 113.442 101.423 113.442C100.555 113.442 99.8436 112.892 99.8436 112.219V104.926ZM44.8876 70.5215L46.6276 66.5288L47.2157 66.6822L45.4759 70.6749L44.8876 70.5215ZM43.4975 77.7406C43.5525 77.6182 43.7258 77.5526 43.8844 77.5955C44.0419 77.6376 44.1262 77.7723 44.0712 77.8949L42.8077 80.7139C42.7533 80.8363 42.5806 80.901 42.4225 80.8581C42.2633 80.8159 42.1798 80.6817 42.234 80.5591L43.4975 77.7406ZM45.192 78.1964C45.247 78.0735 45.4203 78.0086 45.5784 78.0508C45.7366 78.0938 45.8213 78.2281 45.7657 78.3506L44.5028 81.169C44.448 81.2916 44.2747 81.3568 44.1165 81.3137C43.9584 81.2715 43.8737 81.1378 43.9293 81.0149L45.192 78.1964ZM46.8868 78.652C46.9412 78.5291 47.1143 78.4644 47.2731 78.5066C47.4318 78.5495 47.5152 78.6837 47.4608 78.8059L46.1975 81.6248C46.1426 81.7477 45.9687 81.8124 45.8112 81.7699C45.6524 81.7269 45.5689 81.5935 45.6233 81.4709L46.8868 78.652ZM40.1082 76.8288C40.1638 76.7072 40.3371 76.6416 40.4946 76.6841C40.6534 76.7267 40.7375 76.8609 40.6825 76.9838L39.4196 79.802C39.3648 79.9254 39.1915 79.9896 39.0327 79.947C38.8746 79.9045 38.7911 79.7707 38.8455 79.6481L40.1082 76.8288ZM38.4333 76.3305C38.4877 76.2076 38.6616 76.1425 38.8196 76.1849C38.9785 76.228 39.062 76.3623 39.007 76.4847L37.7441 79.3032C37.6893 79.4258 37.517 79.4909 37.3583 79.4483C37.1997 79.4062 37.1156 79.2716 37.17 79.149L38.4333 76.3305ZM36.7388 75.8752C36.7937 75.7523 36.967 75.6872 37.1257 75.7298C37.2837 75.7722 37.3678 75.9062 37.3134 76.0291L36.0507 78.8471C35.9945 78.9705 35.8213 79.0353 35.6638 78.9927C35.5051 78.9501 35.4211 78.8163 35.4759 78.6934L36.7388 75.8752ZM41.803 77.285C41.8574 77.1624 42.031 77.0973 42.1893 77.1399C42.348 77.1825 42.432 77.3167 42.377 77.4396L41.1143 80.2581C41.0594 80.3805 40.8861 80.4454 40.728 80.4028C40.5691 80.3602 40.4845 80.2264 40.5401 80.1035L41.803 77.285ZM35.7372 74.3505L33.451 79.4527C33.3962 79.5761 33.4797 79.7094 33.6377 79.752L46.8126 83.2951C46.9714 83.3377 47.1435 83.2726 47.1985 83.1492L49.4857 78.047C49.5401 77.9239 49.4572 77.7898 49.2984 77.7472L36.1241 74.2045C35.9655 74.1623 35.7928 74.2271 35.7372 74.3505ZM45.2173 71.1011C45.4903 71.2778 45.5942 71.5662 45.4769 71.8278C45.3598 72.0893 45.0462 72.2661 44.6913 72.2744L44.5382 72.6158C44.4832 72.7383 44.3099 72.8036 44.1513 72.7605C44.0348 72.7297 43.9062 72.761 43.8346 72.8391L43.9523 72.8188C44.0617 72.7987 44.1827 72.8264 44.2589 72.8981L44.3515 72.9876C44.4249 72.8955 44.5725 72.8526 44.7088 72.89C44.8674 72.9321 44.9515 73.0659 44.8961 73.1888C44.864 73.2597 44.8191 73.3236 44.7641 73.3795L48.648 77.0747L47.5601 76.7819L44.2506 73.6333C43.9276 73.6885 43.5855 73.5968 43.3764 73.3987L38.2606 74.2809L37.1728 73.9882L43.1756 72.953C43.1778 72.8813 43.1925 72.8105 43.2249 72.7392C43.3462 72.4672 43.6757 72.2834 44.0464 72.2787L44.1177 72.1193C43.8447 71.9429 43.7402 71.6536 43.8581 71.3926C43.9746 71.1314 44.2882 70.9541 44.6431 70.9468L44.6706 70.8852C44.725 70.7623 44.8983 70.6979 45.0569 70.74C45.2156 70.7831 45.2996 70.9169 45.2448 71.0398L45.2173 71.1011ZM64.8335 111.584C64.8123 111.52 64.7848 111.456 64.7488 111.394C64.3961 110.772 63.4568 110.489 62.655 110.762C61.8531 111.036 61.4875 111.763 61.8402 112.385C61.8756 112.447 61.9176 112.506 61.9647 112.562L61.6238 112.678L61.4976 112.457L59.8972 113.002L59.7542 112.75L59.4009 112.87L59.0842 112.312L59.4375 112.192L58.6664 110.834L59.0707 108.463L61.8952 106.5L63.1805 106.062L62.8165 105.422L63.219 105.285L65.9881 110.162L66.4121 110.018L63.4265 104.759L85.9734 97.0762C84.4244 96.1165 82.8779 95.1299 81.3359 94.1169C60.9132 92.6516 42.6928 89.0342 28.6997 83.9879C23.5706 95.6964 23.9447 105.466 31.0437 110.966C42.2465 119.644 67.1725 115.352 94.0027 101.799L93.2104 101.356L87.5609 103.297L87.821 103.764L87.4784 103.879C87.4582 103.814 87.4307 103.75 87.3953 103.687C87.0489 103.064 86.1124 102.775 85.3077 103.044C84.503 103.312 84.1307 104.038 84.4778 104.661C84.5125 104.724 84.554 104.784 84.6001 104.839L84.5036 104.872L84.5143 104.891L84.1716 105.005C84.1514 104.941 84.1239 104.876 84.0885 104.813C83.7421 104.19 82.8057 103.902 82.0009 104.171C81.1968 104.439 80.8239 105.165 81.1705 105.788C81.2059 105.851 81.2472 105.91 81.2933 105.967L80.9513 106.08L80.7028 105.634L75.3797 107.447L75.6398 107.915L75.2978 108.029C75.277 107.964 75.2495 107.9 75.2147 107.837C74.8677 107.214 73.9312 106.926 73.1271 107.194C72.3224 107.463 71.9501 108.189 72.2966 108.811C72.3313 108.874 72.3728 108.934 72.4193 108.99L72.3224 109.023L72.333 109.042L71.991 109.156C71.9702 109.091 71.9427 109.027 71.9073 108.964C71.5609 108.341 70.6245 108.052 69.8203 108.321C69.0156 108.589 68.6433 109.315 68.9899 109.938C69.0247 110.001 69.066 110.061 69.1127 110.117L68.7701 110.231L68.5216 109.784L68.2961 109.861L68.4195 110.078L65.4469 111.091L65.3236 110.874L64.9159 111.013L65.1745 111.468L64.8335 111.584ZM61.9967 110.294L61.1757 110.574L61.2391 110.685L62.06 110.406L61.9967 110.294ZM61.7763 109.906L61.1265 108.762L59.4846 109.321L59.2377 110.771C60.0256 110.503 60.9874 110.175 61.7763 109.906ZM62.0976 112.297C61.8072 111.785 62.1071 111.187 62.7682 110.962C63.4289 110.737 64.201 110.969 64.4914 111.481C64.782 111.993 64.4819 112.591 63.8208 112.816C63.1597 113.041 62.3886 112.809 62.0976 112.297ZM63.5943 112.418C63.9706 112.289 64.1421 111.948 63.9767 111.656C63.8113 111.365 63.3706 111.232 62.9943 111.361C62.6187 111.489 62.4469 111.83 62.6123 112.121C62.7779 112.413 63.2186 112.546 63.5943 112.418ZM63.0475 111.973C62.9876 111.867 63.0497 111.744 63.186 111.698C63.3223 111.651 63.4815 111.699 63.5415 111.805C63.6016 111.911 63.5393 112.034 63.403 112.08C63.2667 112.127 63.1075 112.079 63.0475 111.973ZM69.2478 109.852C68.9624 109.338 69.268 108.742 69.9313 108.521C70.5942 108.3 71.3635 108.537 71.6494 109.05C71.9354 109.564 71.6292 110.16 70.9659 110.381C70.3032 110.603 69.5337 110.366 69.2478 109.852ZM70.7439 109.981C71.1212 109.855 71.2957 109.515 71.133 109.223C70.9704 108.93 70.5313 108.795 70.1538 108.921C69.7766 109.047 69.6015 109.387 69.7641 109.68C69.9267 109.972 70.3665 110.107 70.7439 109.981ZM70.3317 109.264C70.4674 109.217 70.6272 109.264 70.6883 109.369C70.7495 109.474 70.6889 109.598 70.5532 109.645C70.4175 109.692 70.2577 109.646 70.1966 109.541C70.1354 109.435 70.196 109.312 70.3317 109.264ZM72.5546 108.725C72.2691 108.212 72.5748 107.616 73.2381 107.394C73.901 107.173 74.6709 107.41 74.9561 107.924C75.2422 108.437 74.936 109.033 74.2733 109.255C73.6098 109.476 72.8405 109.239 72.5546 108.725ZM74.0505 108.854C74.428 108.729 74.6024 108.388 74.4398 108.096C74.2772 107.804 73.8381 107.669 73.4606 107.795C73.0834 107.92 72.9089 108.261 73.0715 108.553C73.2341 108.845 73.6733 108.981 74.0505 108.854ZM73.5079 108.407C73.4489 108.301 73.5122 108.179 73.6491 108.133C73.7854 108.087 73.9441 108.136 74.003 108.242C74.0624 108.348 73.9991 108.471 73.8622 108.516C73.7253 108.562 73.5666 108.513 73.5079 108.407ZM81.429 105.702C81.1436 105.188 81.4492 104.592 82.1125 104.371C82.7754 104.149 83.5447 104.386 83.8308 104.9C84.116 105.414 83.8104 106.009 83.1471 106.231C82.4838 106.452 81.7149 106.215 81.429 105.702ZM82.9246 105.831C83.3018 105.705 83.4769 105.365 83.3143 105.072C83.1516 104.78 82.7119 104.645 82.3347 104.771C81.9572 104.896 81.7827 105.237 81.9454 105.529C82.108 105.821 82.5471 105.957 82.9246 105.831ZM82.3823 105.383C82.3234 105.277 82.3861 105.155 82.523 105.109C82.6599 105.063 82.8185 105.112 82.8775 105.218C82.9362 105.324 82.8729 105.447 82.7366 105.492C82.5997 105.538 82.4411 105.489 82.3823 105.383ZM84.7358 104.575C84.4504 104.061 84.756 103.465 85.4193 103.244C86.0822 103.022 86.8515 103.26 87.1373 103.773C87.4228 104.287 87.1172 104.883 86.4539 105.104C85.7906 105.326 85.0217 105.089 84.7358 104.575ZM86.2313 104.704C86.6086 104.578 86.7836 104.238 86.621 103.946C86.4584 103.653 86.0193 103.518 85.6414 103.644C85.2646 103.77 85.0895 104.11 85.2521 104.403C85.4147 104.695 85.8539 104.83 86.2313 104.704ZM85.8242 103.986C85.9603 103.939 86.1202 103.986 86.1809 104.091C86.2418 104.196 86.1819 104.319 86.0462 104.367C85.9099 104.414 85.7506 104.367 85.6895 104.262C85.6284 104.157 85.6885 104.033 85.8242 103.986ZM31.4233 33.4519C31.1956 33.5266 30.94 33.4626 30.8059 33.3116L30.4566 33.4253C30.6736 33.7251 31.1515 33.8563 31.5703 33.7194C31.9853 33.583 32.1984 33.2264 32.0733 32.8966L31.7222 33.0109C31.7705 33.1904 31.6488 33.3775 31.4233 33.4519ZM36.8295 29.5248L36.9411 29.7277L36.3815 29.911L36.4551 30.0464L37.0147 29.8631L37.1257 30.0665L36.5661 30.2502L36.6715 30.4453L37.0594 30.318L37.3775 30.901L37.4151 30.9691L30.1038 33.3616L30.1875 33.5136L30.2767 33.6742L28.0281 34.4098C28.1373 34.6834 28.2495 34.9576 28.3656 35.2334C42.4999 30.2668 60.9969 26.8235 81.725 25.6285C85.8011 22.9642 89.9058 20.4845 94.0027 18.2012C67.1731 4.64833 42.2465 0.355438 31.0437 9.03413C25.3522 13.4435 23.9845 20.5979 26.3092 29.2967L34.5726 26.5941L35.9566 29.1329L27.1387 32.0169L27.1941 32.1786L36.0395 29.2854L36.2693 29.7071L36.8295 29.5248ZM31.3343 33.2906C31.4453 33.2542 31.5092 33.1686 31.5064 33.0817L31.0225 33.2404C31.0999 33.3034 31.2243 33.3268 31.3343 33.2906ZM33.3052 32.8355C33.0799 32.9101 32.8219 32.8462 32.6874 32.6943L32.338 32.8094C32.556 33.1095 33.0328 33.2404 33.4516 33.1035C33.8688 32.9666 34.0808 32.6096 33.9546 32.2802L33.6041 32.3958C33.6512 32.5748 33.5313 32.7625 33.3052 32.8355ZM33.2171 32.6747C33.3277 32.6391 33.3928 32.5539 33.3883 32.4657L32.9038 32.6243C32.9817 32.6877 33.105 32.7107 33.2171 32.6747ZM35.187 32.2198C34.9605 32.2933 34.7038 32.2321 34.5702 32.0795L34.2205 32.1938C34.4369 32.4931 34.9152 32.6252 35.3324 32.4879C35.75 32.3506 35.9633 31.9949 35.8359 31.6651L35.486 31.779C35.533 31.9596 35.4143 32.1452 35.187 32.2198ZM35.0996 32.0574C35.2096 32.0231 35.2741 31.9371 35.2719 31.8507L34.7863 32.0091C34.8648 32.0714 34.9874 32.0944 35.0996 32.0574ZM53.2922 28.2645C53.0532 28.3093 52.8127 28.2146 52.7134 28.0494L52.3432 28.1177C52.496 28.44 52.9395 28.6302 53.3812 28.5473C53.8204 28.4652 54.1046 28.1398 54.0496 27.7988L53.6801 27.8679C53.6892 28.0508 53.5304 28.2201 53.2922 28.2645ZM59.4486 25.068L59.5154 25.2823L58.9243 25.3931L58.9697 25.5354L59.5601 25.4251L59.627 25.6403L59.0359 25.7506L59.0998 25.956L59.5103 25.8792L59.7016 26.4951L59.7233 26.5668L52.0097 28.01L52.0602 28.1706L52.114 28.3406L44.9774 29.6755L44.9246 29.5061L44.8747 29.3448L37.991 30.6329L37.969 30.5612L37.7767 29.9457L38.1866 29.8693L37.8048 28.6451L48.1348 26.7123L48.5168 27.9369L48.7696 27.8888L48.3884 26.6649L58.7186 24.7327L58.8577 25.1779L59.4486 25.068ZM53.2394 28.0951C53.3555 28.0733 53.4368 27.9973 53.4524 27.9104L52.9411 28.006C53.005 28.0782 53.1229 28.1168 53.2394 28.0951ZM55.2783 27.8931C55.0399 27.9383 54.7988 27.8431 54.6979 27.6767L54.3306 27.7463C54.4821 28.069 54.9244 28.2589 55.3663 28.1758C55.8071 28.0929 56.0904 27.7683 56.036 27.4269L55.6664 27.496C55.6742 27.6793 55.5167 27.8493 55.2783 27.8931ZM55.2251 27.7233C55.3416 27.7015 55.4241 27.6255 55.4381 27.5386L54.9268 27.6345C54.9907 27.7067 55.1078 27.7453 55.2251 27.7233ZM57.2644 27.5216C57.0251 27.5656 56.7851 27.4716 56.6852 27.3053L56.3157 27.3748C56.467 27.6975 56.9107 27.887 57.3525 27.8045C57.7922 27.7219 58.0765 27.3965 58.0209 27.0555L57.652 27.1247C57.6605 27.3075 57.5034 27.4769 57.2644 27.5216ZM57.2118 27.3509C57.3279 27.33 57.4092 27.254 57.4255 27.1676L56.9123 27.2637C56.9768 27.3348 57.0945 27.3731 57.2118 27.3509ZM39.9636 30.7584C39.7253 30.8032 39.4841 30.7077 39.385 30.5427L39.0149 30.6109C39.1674 30.9344 39.6109 31.1238 40.0522 31.0413C40.4936 30.9587 40.7767 30.6334 40.7223 30.2928L40.3527 30.3614C40.3607 30.5439 40.2036 30.7129 39.9636 30.7584ZM39.911 30.5886C40.0275 30.5669 40.1088 30.4918 40.1241 30.404L39.6131 30.4996C39.6776 30.5725 39.7955 30.6104 39.911 30.5886ZM41.9497 30.3871C41.7116 30.4314 41.4692 30.3371 41.3705 30.1707L41.001 30.2398C41.1535 30.563 41.597 30.7525 42.0378 30.6699C42.4797 30.5872 42.763 30.2619 42.7074 29.9209L42.3379 29.99C42.3468 30.1729 42.1887 30.3424 41.9497 30.3871ZM41.8971 30.2172C42.0142 30.1951 42.0955 30.1195 42.1096 30.0326L41.5976 30.1277C41.6633 30.2003 41.781 30.2389 41.8971 30.2172ZM43.9361 30.0152C43.6977 30.0599 43.4554 29.9652 43.3578 29.7989L42.9871 29.8683C43.1396 30.1916 43.5837 30.3805 44.0241 30.2981C44.4664 30.2155 44.7473 29.8906 44.6941 29.5496L44.3234 29.6181C44.3331 29.8015 44.1738 29.9699 43.9361 30.0152ZM43.8826 29.8454C43.9994 29.8236 44.0819 29.7476 44.0959 29.6611L43.5843 29.7568C43.6482 29.8288 43.7661 29.8667 43.8826 29.8454ZM47.503 23.8248L57.8332 21.8929L58.668 24.5719L48.338 26.5038L47.503 23.8248ZM36.9194 25.8048L47.2496 23.8722L48.084 26.5517L37.7548 28.4839L36.9194 25.8048ZM60.2011 25.5589L60.3038 25.5482L60.3508 25.8209L60.6213 25.7926L60.574 25.5198L60.9297 25.4829L61.0367 26.102L60.5196 26.155L60.5578 26.3739L60.5712 26.4468L63.6728 26.125L63.3358 24.1753L62.2076 24.293L62.1789 24.1289L80.9816 22.1731L80.8502 21.4156L80.175 21.4859L80.09 21.0019L79.7025 21.0415L78.6492 19.9314L78.9072 19.9046L78.84 19.5223L60.7613 21.4025L60.8282 21.7856L61.1095 21.7547L61.317 22.9533L60.5061 23.038L60.8286 24.8999L60.4731 24.9368L60.4416 24.7549L60.172 24.7836L60.2029 24.965L60.0996 24.9758L60.1378 25.1941L60.2399 25.1834L60.2656 25.329L60.1631 25.3397L60.2011 25.5589ZM75.1172 21.3421L74.9647 20.4628L76.7988 20.2717L76.9508 21.1513L75.1172 21.3421ZM74.5356 21.4025L72.7609 21.587L72.6084 20.7078L74.3831 20.5232L74.5356 21.4025ZM77.5334 21.091L77.3808 20.2108L78.3745 20.1083L79.1484 20.9229L77.5334 21.091ZM60.8662 25.1184L60.8915 25.264L60.536 25.301L60.5107 25.1554L60.8662 25.1184ZM75.1536 25.4156C74.9102 25.4407 74.6837 25.3266 74.6052 25.1545L74.2284 25.1937C74.3378 25.5268 74.7526 25.7509 75.2034 25.704C75.6527 25.6571 75.9779 25.3566 75.969 25.0124L75.5921 25.0516C75.5769 25.2335 75.3965 25.3905 75.1536 25.4156ZM75.1233 25.2423C75.2422 25.23 75.333 25.161 75.3599 25.0758L74.8384 25.1302C74.8922 25.207 75.0044 25.2548 75.1233 25.2423ZM77.1773 25.2049C76.9357 25.2302 76.708 25.1168 76.6301 24.9439L76.2538 24.983C76.362 25.3166 76.7781 25.5403 77.2283 25.4933C77.6776 25.4464 78.0028 25.1459 77.9939 24.8018L77.617 24.8414C77.6008 25.0237 77.4202 25.1788 77.1773 25.2049ZM77.1482 25.032C77.2671 25.0197 77.3591 24.9499 77.3838 24.8653L76.8627 24.9195C76.9183 24.9964 77.0287 25.0441 77.1482 25.032ZM79.2045 24.9942C78.9594 25.019 78.7329 24.906 78.6556 24.7332L78.2775 24.7727C78.3869 25.1059 78.803 25.3304 79.2532 25.2827C79.703 25.2361 80.0277 24.9352 80.0182 24.592L79.6419 24.6306C79.6261 24.8135 79.4461 24.9699 79.2045 24.9942ZM79.1731 24.8213C79.292 24.809 79.3834 24.7401 79.4097 24.6545L78.8876 24.7088C78.9426 24.7857 79.0536 24.8335 79.1731 24.8213ZM62.516 26.7297C62.2731 26.7549 62.0456 26.6411 61.9698 26.469L61.5918 26.5077C61.7 26.8405 62.1162 27.065 62.567 27.0182C63.0161 26.9713 63.3413 26.6698 63.3324 26.3265L62.9543 26.3661C62.9393 26.5486 62.7599 26.7044 62.516 26.7297ZM62.4857 26.5569C62.6046 26.5446 62.6966 26.4756 62.7211 26.3904L62.2009 26.4442C62.2558 26.5204 62.3668 26.569 62.4857 26.5569ZM64.5409 26.519C64.298 26.5451 64.0708 26.4312 63.9935 26.2571L63.6178 26.2971C63.7255 26.6307 64.1415 26.8543 64.5907 26.8074C65.0404 26.761 65.3656 26.46 65.3561 26.1163L64.9788 26.1563C64.9642 26.3383 64.7836 26.4939 64.5409 26.519ZM64.511 26.3462C64.6295 26.3339 64.7213 26.2649 64.7472 26.1797L64.2261 26.2337C64.2805 26.3101 64.3923 26.3583 64.511 26.3462ZM66.5652 26.3092C66.3223 26.3348 66.0957 26.2206 66.019 26.0473L65.6421 26.0864C65.7504 26.42 66.1664 26.6438 66.6156 26.5972C67.0653 26.5503 67.3905 26.2493 67.3816 25.9057L67.0036 25.9443C66.9891 26.1276 66.8085 26.2832 66.5652 26.3092ZM66.5359 26.1354C66.6554 26.1232 66.7462 26.0542 66.7721 25.969L66.25 26.0238C66.3048 26.1002 66.4176 26.1472 66.5359 26.1354ZM70.2605 23.4555L70.6053 25.4482L70.3934 25.4698L70.0486 23.4777L63.5478 24.1536L63.8853 26.102L67.5879 25.717L67.6166 25.8813L67.6463 26.0542L73.9716 25.3974L73.9413 25.2236L73.9126 25.0594L81.489 24.2722L81.4761 24.1983L81.4391 23.9807L81.2973 23.9945L81.2463 23.7035L81.5821 23.6687L81.4233 22.7528L81.0892 22.7876L81.0094 22.3377L70.2605 23.4555ZM70.3861 19.9006L78.1917 19.0892L78.2421 19.3802L70.4365 20.1921L70.3861 19.9006ZM99.8436 21.2808C98.6161 20.6058 97.3914 19.9501 96.1689 19.3134C92.7533 21.2087 89.3239 23.2469 85.9016 25.4203C90.4588 25.2271 95.1119 25.1388 99.8436 25.1689V21.2808ZM99.8436 27.0937C93.9932 27.056 88.2667 27.1936 82.7069 27.4903C78.3656 30.3611 74.0501 33.4462 69.8085 36.7318C59.9954 44.3345 51.5644 52.2464 44.758 59.9999C51.5644 67.753 59.9954 75.6659 69.8085 83.2681C72.1576 85.088 74.53 86.8464 76.9165 88.5406C84.138 89.1749 91.6841 89.5429 99.4539 89.6042L99.8436 89.6057V27.0937ZM99.8436 94.8315L99.3836 94.8299C94.7054 94.793 90.1055 94.6413 85.6015 94.3886C89.1225 96.6336 92.6536 98.7357 96.1683 100.687C97.3902 100.049 98.6161 99.3943 99.8436 98.7192V94.8315ZM28.7755 78.6664C31.9998 72.681 36.3973 66.3806 41.8528 59.9999C35.3055 52.3425 30.2839 44.801 26.9828 37.7808C13.1664 43.0907 4.80276 49.9932 4.70306 57.5968C4.59703 65.6217 13.7126 73.012 28.7755 78.6664ZM78.5545 27.7432C59.1576 29.0756 42.0121 32.3697 29.1349 36.9823C32.1956 43.6402 36.9922 50.8928 43.3108 58.3244C50.1049 50.623 58.4169 42.8352 68.0516 35.3712C71.5069 32.6943 75.0163 30.1499 78.5545 27.7432ZM30.9141 79.4445C42.2196 83.4206 56.5669 86.4576 72.7142 88.1385C71.1509 86.9955 69.596 85.8256 68.0516 84.6292C58.4169 77.165 50.1049 69.3776 43.3108 61.6759C38.1065 67.7977 33.9338 73.7983 30.9141 79.4445Z" fill="white"/>
</mask>
<g mask="url(#mask0_889_2247)">
<path d="M0 120H107.478V0H0V120Z" fill="url(#paint0_linear_889_2247)"/>
</g>
<defs>
<linearGradient id="paint0_linear_889_2247" x1="8.54623" y1="61.4793" x2="27.9917" y2="69.8006" gradientUnits="userSpaceOnUse">
<stop stop-color="#046DD6"/>
<stop offset="1" stop-color="#0C37AD"/>
</linearGradient>
</defs>
</svg>
