<svg width="20" height="20" viewBox="0 0 20 20" fill="none" xmlns="http://www.w3.org/2000/svg">
<g clip-path="url(#clip0_998_1133)">
<path d="M14.5833 9.16667C11.5967 9.16667 9.16667 11.5967 9.16667 14.5833C9.16667 17.57 11.5967 20 14.5833 20C17.57 20 20 17.57 20 14.5833C20 11.5967 17.57 9.16667 14.5833 9.16667ZM14.5833 19.1667C12.0558 19.1667 10 17.11 10 14.5833C10 12.0567 12.0558 10 14.5833 10C17.1108 10 19.1667 12.0567 19.1667 14.5833C19.1667 17.11 17.1108 19.1667 14.5833 19.1667ZM17.0333 12.9575L17.6175 13.5517L14.7367 16.3842C14.5558 16.5658 14.3117 16.6667 14.0517 16.6667C13.7917 16.6667 13.5483 16.5658 13.3642 16.3817L11.8217 14.8867L12.4017 14.2875L13.9483 15.7875C14 15.8392 14.1033 15.8392 14.1492 15.7925L17.0325 12.9575H17.0333ZM2.08333 19.1667C1.39417 19.1667 0.833333 18.6058 0.833333 17.9167V7.5H15.8333V6.66667H13.3333V5.41667C13.3333 2.43 10.9033 0 7.91667 0C4.93 0 2.5 2.43 2.5 5.41667V6.66667H0V17.9167C0 19.0658 0.935 20 2.08333 20H9.4575C9.14417 19.7467 8.85583 19.4658 8.58667 19.1667H2.08333ZM3.33333 5.41667C3.33333 2.88917 5.38917 0.833333 7.91667 0.833333C10.4442 0.833333 12.5 2.88917 12.5 5.41667V6.66667H3.33333V5.41667ZM7.5 15V11.6667H8.33333V15H7.5Z" fill="white"/>
</g>
<defs>
<clipPath id="clip0_998_1133">
<rect width="20" height="20" fill="white"/>
</clipPath>
</defs>
</svg>
