<svg width="20" height="20" viewBox="0 0 20 20" fill="none" xmlns="http://www.w3.org/2000/svg">
<path d="M19.9567 10.2054L19.2242 6.66139C19.025 5.69893 18.1667 4.99979 17.1842 4.99979H16.1283C15.3967 4.99979 14.71 5.39144 14.3367 6.02142L13.46 7.49969H6.54L5.66333 6.02142C5.28917 5.39144 4.60333 4.99979 3.87167 4.99979H2.81583C1.8325 4.99979 0.975 5.69893 0.775833 6.66139L0.0433333 10.2054C-0.130833 11.0512 0.241667 11.927 0.97 12.3878L4.16667 14.4094V19.9992H5V13.9503L3.91083 13.2611L5.23167 6.92638L6.66667 9.34628V14.1652H13.3333V9.34544L14.7683 6.92554L16.09 13.2603L15 13.9494V19.9983H15.8333V14.4086L19.03 12.387C19.7592 11.9262 20.1317 11.0512 19.9567 10.2054ZM3.21667 12.8228L1.415 11.6837C0.9775 11.4079 0.754167 10.8812 0.859167 10.3754L1.59167 6.83138C1.71083 6.25307 2.22583 5.83392 2.81583 5.83392H3.87167C4.14667 5.83392 4.40417 5.93392 4.61833 6.09558L3.21667 12.8236V12.8228ZM12.5 13.3328H7.5V8.33299H12.5V13.3328ZM18.585 11.6837L16.7842 12.8228L15.3817 6.09558C15.5958 5.93392 15.8542 5.83392 16.1283 5.83392H17.1842C17.7742 5.83392 18.2892 6.25307 18.4083 6.83138L19.1408 10.3754C19.2458 10.8812 19.0225 11.4079 18.585 11.6837ZM15.4167 4.16649C16.565 4.16649 17.5 3.23237 17.5 2.08325C17.5 0.934128 16.565 0 15.4167 0C14.2683 0 13.3333 0.934128 13.3333 2.08325C13.3333 3.23237 14.2683 4.16649 15.4167 4.16649ZM15.4167 0.833299C16.1058 0.833299 16.6667 1.39411 16.6667 2.08325C16.6667 2.77238 16.1058 3.33319 15.4167 3.33319C14.7275 3.33319 14.1667 2.77238 14.1667 2.08325C14.1667 1.39411 14.7275 0.833299 15.4167 0.833299ZM4.58333 4.16649C5.73167 4.16649 6.66667 3.23237 6.66667 2.08325C6.66667 0.934128 5.7325 0 4.58333 0C3.43417 0 2.5 0.934128 2.5 2.08325C2.5 3.23237 3.435 4.16649 4.58333 4.16649ZM4.58333 0.833299C5.2725 0.833299 5.83333 1.39411 5.83333 2.08325C5.83333 2.77238 5.2725 3.33319 4.58333 3.33319C3.89417 3.33319 3.33333 2.77238 3.33333 2.08325C3.33333 1.39411 3.89417 0.833299 4.58333 0.833299ZM20 19.9992H19.145L18.0475 14.9819L18.7958 14.5086L20 19.9992ZM1.20417 14.5086L1.9525 14.9819L0.855 19.9992H0L1.20417 14.5086Z" fill="white"/>
</svg>
