<svg width="24" height="24" viewBox="0 0 24 24" fill="none" xmlns="http://www.w3.org/2000/svg">
<path d="M14.9998 7.00038V2.50022C14.9998 2.22421 15.2238 2.0002 15.4998 2.0002C15.7758 2.0002 15.9998 2.22421 15.9998 2.50022V7.00038C15.9998 7.09738 16.0138 7.19139 16.0398 7.28039L23.1458 0.147131C23.3408 -0.0488765 23.6578 -0.0488765 23.8528 0.146131C24.0487 0.341138 24.0487 0.658149 23.8547 0.854156L16.7638 7.97342C16.8398 7.99142 16.9188 8.00142 16.9998 8.00142H21.4998C21.7758 8.00142 21.9998 8.22542 21.9998 8.50143C21.9998 8.77744 21.7758 9.00145 21.4998 9.00145H16.9998C15.8968 9.00145 14.9998 8.10342 14.9998 7.00038ZM23.1628 17.2988C23.7198 17.8498 23.9997 18.5258 23.9997 19.2438C23.9997 19.9619 23.7198 20.6389 23.2118 21.1459L22.2338 22.2709C21.1128 23.395 19.6258 24 18.0228 24C10.2749 24.001 0 13.7256 0 5.97634C0 4.37328 0.604994 2.88623 1.70498 1.78919L2.87897 0.765153C3.84596 -0.204882 5.64194 -0.227883 6.65893 0.788154L8.61791 3.33125C9.6239 4.33128 9.6239 6.03834 8.57491 7.08738L7.08693 8.61244C8.70391 12.4156 11.7009 15.4167 15.3818 16.9157L16.9138 15.4217C17.9608 14.3746 19.6668 14.3756 20.7158 15.4247L23.1618 17.2978L23.1628 17.2988ZM22.5048 18.0488L20.0588 16.1757C19.3228 15.4507 18.2578 15.4937 17.6198 16.1327C17.6198 16.1347 15.8488 17.8598 15.8488 17.8598C15.7098 17.9958 15.5048 18.0398 15.3218 17.9678C11.1499 16.3747 7.76492 12.9926 6.03694 8.68744C5.96294 8.50343 6.00494 8.29343 6.14294 8.15142L7.86492 6.38536C8.52891 5.72133 8.52891 4.64929 7.86892 3.98927L5.90994 1.44618C5.60794 1.14717 5.19595 0.994161 4.77695 0.994161C4.34095 0.994161 3.89796 1.15917 3.56196 1.49418L2.38698 2.51922C1.50098 3.40425 0.99999 4.64029 0.99999 5.97534C0.99999 13.1356 10.8639 23 18.0228 23C19.3578 23 20.5938 22.4989 21.5028 21.5889L22.4808 20.4639C23.1638 19.7788 23.1638 18.7068 22.5038 18.0478L22.5048 18.0488Z" fill="white"/>
</svg>
