<svg width="24" height="24" viewBox="0 0 24 24" fill="none" xmlns="http://www.w3.org/2000/svg">
<g clip-path="url(#clip0_1009_1526)">
<path d="M22.623 9.26L21 7.696V3.5C21 1.57 19.43 0 17.5 0H6.5C4.57 0 3 1.57 3 3.5V7.696L1.377 9.26C0.502 10.104 0 11.284 0 12.5V19.5C0 21.981 2.019 24 4.5 24H19.5C21.981 24 24 21.981 24 19.5V12.5C24 11.284 23.498 10.104 22.623 9.26ZM21.93 9.981C22.022 10.07 22.095 10.175 22.177 10.273L21 11.45V9.085L21.93 9.981ZM4 3.5C4 2.121 5.121 1 6.5 1H17.5C18.879 1 20 2.121 20 3.5V12.449L14.475 17.974C13.153 19.296 10.848 19.296 9.526 17.974L4.001 12.449L4 3.5ZM3 9.085V11.45L1.823 10.273C1.904 10.175 1.977 10.07 2.07 9.981L3 9.085ZM23 19.5C23 21.43 21.43 23 19.5 23H4.5C2.57 23 1 21.43 1 19.5V12.5C1 12.031 1.097 11.568 1.277 11.141L8.818 18.682C9.668 19.533 10.797 20 12 20C13.203 20 14.332 19.532 15.182 18.682L22.723 11.141C22.903 11.568 23 12.031 23 12.5V19.5ZM6.659 8.163C6.457 7.975 6.445 7.659 6.634 7.456C6.823 7.255 7.139 7.243 7.341 7.431L9.619 9.548C10.216 10.145 11.168 10.146 11.753 9.561L16.499 4.986C16.697 4.797 17.014 4.8 17.206 5C17.397 5.198 17.392 5.515 17.192 5.707L12.453 10.275C11.971 10.758 11.333 11 10.694 11C10.055 11 9.413 10.757 8.924 10.269L6.658 8.165L6.659 8.163Z" fill="white"/>
</g>
<defs>
<clipPath id="clip0_1009_1526">
<rect width="24" height="24" fill="white"/>
</clipPath>
</defs>
</svg>
