<svg width="103" height="121" viewBox="0 0 103 121" fill="none" xmlns="http://www.w3.org/2000/svg">
<mask id="mask0_1233_1183" style="mask-type:luminance" maskUnits="userSpaceOnUse" x="0" y="0" width="103" height="121">
<path d="M99.8436 105.701C70.3301 120.928 42.146 125.576 29.2409 115.525C20.8565 108.994 20.4417 97.4383 26.5393 83.8397C9.96787 77.4506 -0.118823 68.9715 0.00105677 59.7377C0.120541 50.6837 10.0268 42.5108 26.186 36.4231C20.4595 23.1718 21.0215 11.9411 29.2409 5.53871C42.146 -4.51268 70.3301 0.135435 99.8436 15.3627V8.02964C99.8436 7.35352 100.553 6.80066 101.421 6.80066C102.289 6.80066 103 7.35352 103 8.02964V113.035C103 113.711 102.29 114.264 101.423 114.264C100.555 114.264 99.8436 113.711 99.8436 113.035V105.701ZM44.8876 71.1104L46.6276 67.096L47.2157 67.2503L45.4759 71.2646L44.8876 71.1104ZM43.4975 78.3687C43.5525 78.2455 43.7258 78.1796 43.8844 78.2228C44.0419 78.2651 44.1262 78.4006 44.0712 78.5238L42.8077 81.3581C42.7533 81.4812 42.5806 81.5462 42.4225 81.503C42.2633 81.4607 42.1798 81.3257 42.234 81.2024L43.4975 78.3687ZM45.192 78.8269C45.247 78.7033 45.4203 78.6382 45.5784 78.6805C45.7366 78.7238 45.8213 78.8588 45.7657 78.9819L44.5028 81.8157C44.448 81.939 44.2747 82.0044 44.1165 81.9611C43.9584 81.9188 43.8737 81.7843 43.9293 81.6607L45.192 78.8269ZM46.8868 79.285C46.9412 79.1614 47.1142 79.0964 47.2731 79.1388C47.4318 79.1819 47.5152 79.3169 47.4608 79.4397L46.1975 82.2739C46.1426 82.3975 45.9687 82.4625 45.8112 82.4199C45.6524 82.3766 45.5689 82.2425 45.6233 82.1192L46.8868 79.285ZM40.1082 77.4519C40.1638 77.3297 40.3371 77.2637 40.4946 77.3064C40.6534 77.3492 40.7375 77.4842 40.6825 77.6078L39.4196 80.4413C39.3648 80.5653 39.1915 80.6299 39.0327 80.587C38.8746 80.5443 38.7911 80.4098 38.8455 80.2866L40.1082 77.4519ZM38.4333 76.9509C38.4877 76.8274 38.6616 76.7619 38.8196 76.8046C38.9785 76.8479 39.062 76.9828 39.007 77.1059L37.7441 79.9397C37.6893 80.063 37.517 80.1285 37.3583 80.0856C37.1997 80.0433 37.1156 79.908 37.17 79.7847L38.4333 76.9509ZM36.7388 76.4932C36.7937 76.3696 36.967 76.3041 37.1257 76.3469C37.2837 76.3896 37.3678 76.5243 37.3134 76.6479L36.0507 79.4812C35.9945 79.6052 35.8213 79.6704 35.6638 79.6275C35.5051 79.5847 35.4211 79.4502 35.4759 79.3266L36.7388 76.4932ZM41.803 77.9106C41.8574 77.7873 42.031 77.7218 42.1893 77.7647C42.348 77.8075 42.432 77.9425 42.377 78.066L41.1143 80.8998C41.0594 81.0229 40.8861 81.0881 40.728 81.0453C40.5691 81.0024 40.4845 80.8679 40.5401 80.7443L41.803 77.9106ZM35.7372 74.9602L33.451 80.0901C33.3962 80.2141 33.4797 80.3482 33.6377 80.391L46.8126 83.9533C46.9714 83.9961 47.1435 83.9307 47.1985 83.8066L49.4857 78.6767C49.5401 78.553 49.4572 78.4181 49.2984 78.3753L36.1241 74.8133C35.9655 74.771 35.7928 74.8361 35.7372 74.9602ZM45.2173 71.6931C45.4903 71.8708 45.5942 72.1608 45.4769 72.4238C45.3598 72.6866 45.0462 72.8645 44.6913 72.8728L44.5382 73.2161C44.4832 73.3392 44.3099 73.4048 44.1513 73.3615C44.0348 73.3306 43.9062 73.362 43.8346 73.4406L43.9523 73.4201C44.0617 73.3999 44.1827 73.4278 44.2589 73.4999L44.3515 73.5899C44.4249 73.4973 44.5725 73.4541 44.7088 73.4917C44.8674 73.5341 44.9515 73.6686 44.8961 73.7922C44.864 73.8634 44.8191 73.9277 44.7641 73.9839L48.648 77.6992L47.5601 77.4047L44.2506 74.239C43.9276 74.2945 43.5855 74.2024 43.3764 74.0031L38.2606 74.8902L37.1728 74.5959L43.1756 73.5551C43.1778 73.483 43.1925 73.4118 43.2249 73.3401C43.3462 73.0666 43.6757 72.8819 44.0464 72.8771L44.1177 72.7169C43.8447 72.5395 43.7402 72.2486 43.8581 71.9862C43.9746 71.7236 44.2882 71.5454 44.6431 71.538L44.6706 71.476C44.725 71.3524 44.8983 71.2877 45.0569 71.3301C45.2156 71.3734 45.2996 71.5079 45.2448 71.6315L45.2173 71.6931ZM64.8335 112.396C64.8123 112.331 64.7848 112.267 64.7488 112.204C64.3961 111.58 63.4568 111.295 62.655 111.57C61.8531 111.844 61.4875 112.576 61.8402 113.201C61.8756 113.264 61.9176 113.323 61.9647 113.379L61.6238 113.496L61.4976 113.273L59.8972 113.821L59.7542 113.568L59.4009 113.689L59.0842 113.128L59.4375 113.007L58.6664 111.642L59.0707 109.257L61.8952 107.284L63.1805 106.844L62.8165 106.2L63.219 106.062L65.9881 110.966L66.4121 110.821L63.4265 105.533L85.9734 97.8092C84.4244 96.8443 82.8779 95.8523 81.3359 94.8338C60.9132 93.3606 42.6928 89.7236 28.6997 84.6499C23.5706 96.422 23.9447 106.245 31.0437 111.774C42.2465 120.5 67.1725 116.184 94.0027 102.558L93.2104 102.112L87.5609 104.064L87.821 104.534L87.4784 104.649C87.4582 104.583 87.4307 104.519 87.3953 104.456C87.0489 103.829 86.1124 103.539 85.3077 103.809C84.503 104.079 84.1307 104.809 84.4778 105.435C84.5125 105.498 84.554 105.558 84.6001 105.615L84.5036 105.647L84.5143 105.666L84.1716 105.781C84.1514 105.716 84.1239 105.652 84.0885 105.588C83.7422 104.962 82.8057 104.672 82.0009 104.942C81.1968 105.212 80.8239 105.942 81.1705 106.568C81.2059 106.632 81.2472 106.691 81.2933 106.748L80.9513 106.862L80.7028 106.413L75.3797 108.237L75.6398 108.707L75.2978 108.821C75.277 108.756 75.2495 108.692 75.2147 108.629C74.8677 108.002 73.9312 107.712 73.1271 107.982C72.3224 108.252 71.9501 108.982 72.2966 109.608C72.3313 109.672 72.3728 109.731 72.4193 109.788L72.3224 109.82L72.333 109.84L71.991 109.954C71.9702 109.889 71.9427 109.825 71.9073 109.762C71.5609 109.135 70.6245 108.845 69.8203 109.115C69.0156 109.385 68.6433 110.115 68.9899 110.741C69.0247 110.804 69.066 110.864 69.1127 110.921L68.7701 111.035L68.5216 110.586L68.2961 110.663L68.4195 110.882L65.4469 111.9L65.3236 111.682L64.9159 111.821L65.1745 112.279L64.8335 112.396ZM61.9967 111.099L61.1757 111.38L61.2391 111.492L62.06 111.211L61.9967 111.099ZM61.7763 110.709L61.1265 109.558L59.4846 110.12L59.2377 111.578C60.0256 111.309 60.9874 110.979 61.7763 110.709ZM62.0976 113.112C61.8072 112.597 62.1071 111.997 62.7682 111.77C63.4289 111.544 64.201 111.778 64.4914 112.292C64.782 112.807 64.4819 113.408 63.8208 113.635C63.1597 113.861 62.3886 113.627 62.0976 113.112ZM63.5943 113.234C63.9706 113.105 64.1421 112.762 63.9767 112.469C63.8113 112.176 63.3706 112.042 62.9943 112.171C62.6187 112.3 62.4469 112.643 62.6123 112.936C62.7779 113.229 63.2186 113.363 63.5943 113.234ZM63.0475 112.787C62.9876 112.681 63.0497 112.557 63.186 112.51C63.3223 112.463 63.4815 112.511 63.5415 112.618C63.6016 112.724 63.5393 112.848 63.403 112.895C63.2667 112.942 63.1075 112.893 63.0475 112.787ZM69.2478 110.655C68.9624 110.138 69.268 109.539 69.9313 109.316C70.5942 109.094 71.3635 109.332 71.6494 109.848C71.9354 110.365 71.6292 110.964 70.9659 111.187C70.3032 111.409 69.5337 111.171 69.2478 110.655ZM70.7439 110.784C71.1212 110.658 71.2957 110.316 71.133 110.022C70.9704 109.728 70.5313 109.592 70.1538 109.718C69.7766 109.845 69.6015 110.187 69.7641 110.481C69.9267 110.775 70.3665 110.911 70.7439 110.784ZM70.3317 110.064C70.4674 110.016 70.6272 110.063 70.6883 110.168C70.7495 110.275 70.6889 110.399 70.5532 110.447C70.4175 110.494 70.2577 110.447 70.1966 110.341C70.1354 110.235 70.196 110.111 70.3317 110.064ZM72.5546 109.522C72.2691 109.005 72.5748 108.406 73.2381 108.183C73.901 107.961 74.6709 108.199 74.9561 108.715C75.2422 109.232 74.936 109.831 74.2733 110.054C73.6098 110.276 72.8405 110.038 72.5546 109.522ZM74.0505 109.651C74.428 109.525 74.6024 109.183 74.4398 108.889C74.2772 108.595 73.8381 108.459 73.4606 108.586C73.0834 108.712 72.9089 109.054 73.0715 109.348C73.2341 109.642 73.6733 109.778 74.0505 109.651ZM73.5079 109.202C73.4489 109.095 73.5122 108.972 73.6491 108.926C73.7854 108.88 73.9441 108.929 74.003 109.035C74.0624 109.142 73.9991 109.266 73.8622 109.312C73.7253 109.357 73.5666 109.308 73.5079 109.202ZM81.429 106.482C81.1436 105.965 81.4492 105.366 82.1125 105.143C82.7754 104.921 83.5447 105.159 83.8308 105.675C84.116 106.192 83.8104 106.791 83.1471 107.014C82.4838 107.236 81.7149 106.998 81.429 106.482ZM82.9246 106.611C83.3018 106.485 83.4769 106.143 83.3143 105.848C83.1516 105.555 82.7119 105.419 82.3347 105.545C81.9572 105.672 81.7827 106.014 81.9454 106.308C82.108 106.602 82.5471 106.738 82.9246 106.611ZM82.3823 106.161C82.3234 106.055 82.3861 105.931 82.523 105.886C82.6599 105.84 82.8185 105.889 82.8775 105.995C82.9362 106.102 82.8729 106.225 82.7366 106.271C82.5997 106.317 82.4411 106.268 82.3823 106.161ZM84.7358 105.349C84.4504 104.832 84.756 104.233 85.4193 104.01C86.0822 103.788 86.8515 104.026 87.1373 104.542C87.4228 105.059 87.1172 105.658 86.4539 105.881C85.7906 106.103 85.0217 105.865 84.7358 105.349ZM86.2313 105.478C86.6086 105.352 86.7836 105.01 86.621 104.716C86.4584 104.422 86.0193 104.286 85.6414 104.413C85.2646 104.539 85.0895 104.881 85.2521 105.175C85.4147 105.469 85.8539 105.605 86.2313 105.478ZM85.8242 104.756C85.9603 104.709 86.1202 104.756 86.1809 104.862C86.2418 104.967 86.1819 105.092 86.0462 105.139C85.9099 105.187 85.7506 105.14 85.6895 105.034C85.6284 104.928 85.6885 104.804 85.8242 104.756ZM31.4233 33.8395C31.1956 33.9147 30.94 33.8503 30.8059 33.6985L30.4566 33.8129C30.6736 34.1143 31.1515 34.2462 31.5703 34.1086C31.9853 33.9714 32.1984 33.6129 32.0733 33.2813L31.7222 33.3962C31.7705 33.5767 31.6488 33.7648 31.4233 33.8395ZM36.8295 29.8911L36.9411 30.0951L36.3815 30.2794L36.4551 30.4156L37.0147 30.2313L37.1257 30.4358L36.5661 30.6206L36.6715 30.8167L37.0594 30.6887L37.3775 31.2748L37.4151 31.3434L30.1038 33.7488L30.1875 33.9016L30.2767 34.0631L28.0281 34.8027C28.1373 35.0778 28.2495 35.3534 28.3656 35.6308C42.4999 30.6372 60.9969 27.1752 81.725 25.9737C85.8011 23.2949 89.9058 20.8018 94.0027 18.5061C67.1731 4.87969 42.2465 0.563497 31.0437 9.28929C25.3522 13.7226 23.9845 20.9159 26.3092 29.6618L34.5726 26.9446L35.9566 29.4971L27.1387 32.3968L27.1941 32.5594L36.0395 29.6504L36.2693 30.0745L36.8295 29.8911ZM31.3343 33.6774C31.4453 33.6408 31.5092 33.5548 31.5064 33.4674L31.0225 33.6269C31.0999 33.6902 31.2243 33.7138 31.3343 33.6774ZM33.3052 33.2198C33.0799 33.2948 32.8219 33.2306 32.6874 33.0779L32.338 33.1936C32.556 33.4953 33.0328 33.6269 33.4516 33.4893C33.8688 33.3517 34.0808 32.9927 33.9546 32.6616L33.6041 32.7777C33.6512 32.9577 33.5313 33.1465 33.3052 33.2198ZM33.2171 33.0582C33.3277 33.0224 33.3928 32.9367 33.3883 32.848L32.9038 33.0075C32.9817 33.0713 33.105 33.0944 33.2171 33.0582ZM35.187 32.6008C34.9605 32.6747 34.7038 32.6132 34.5702 32.4597L34.2205 32.5747C34.4369 32.8756 34.9152 33.0084 35.3324 32.8704C35.75 32.7323 35.9633 32.3746 35.8359 32.0431L35.4859 32.1576C35.533 32.3392 35.4143 32.5258 35.187 32.6008ZM35.0996 32.4375C35.2096 32.403 35.2741 32.3166 35.2719 32.2297L34.7863 32.389C34.8648 32.4515 34.9874 32.4747 35.0996 32.4375ZM53.2922 28.6241C53.0532 28.6691 52.8127 28.5739 52.7134 28.4078L52.3432 28.4765C52.496 28.8005 52.9395 28.9917 53.3812 28.9084C53.8204 28.8258 54.1046 28.4987 54.0496 28.1558L53.6801 28.2253C53.6892 28.4091 53.5304 28.5794 53.2922 28.6241ZM59.4486 25.4102L59.5154 25.6256L58.9243 25.737L58.9697 25.8802L59.5601 25.7692L59.627 25.9856L59.0359 26.0965L59.0998 26.303L59.5103 26.2258L59.7016 26.845L59.7233 26.9172L52.0097 28.3682L52.0602 28.5296L52.114 28.7005L44.9774 30.0427L44.9246 29.8723L44.8747 29.7102L37.991 31.0053L37.969 30.9332L37.7767 30.3144L38.1866 30.2375L37.8048 29.0067L48.1348 27.0634L48.5168 28.2947L48.7696 28.2463L48.3884 27.0158L58.7186 25.0731L58.8577 25.5207L59.4486 25.4102ZM53.2394 28.4537C53.3555 28.4318 53.4368 28.3554 53.4524 28.268L52.9411 28.3642C53.005 28.4367 53.1229 28.4755 53.2394 28.4537ZM55.2783 28.2506C55.0399 28.2961 54.7988 28.2004 54.6979 28.033L54.3306 28.103C54.4821 28.4275 54.9244 28.6184 55.3663 28.5349C55.8071 28.4515 56.0904 28.1252 56.036 27.7819L55.6664 27.8514C55.6742 28.0356 55.5167 28.2065 55.2783 28.2506ZM55.2251 28.0799C55.3416 28.058 55.4241 27.9816 55.4381 27.8942L54.9268 27.9907C54.9907 28.0632 55.1078 28.102 55.2251 28.0799ZM57.2644 27.8771C57.0251 27.9213 56.7851 27.8268 56.6852 27.6597L56.3157 27.7295C56.467 28.054 56.9107 28.2444 57.3525 28.1615C57.7922 28.0785 58.0765 27.7514 58.0209 27.4085L57.652 27.478C57.6605 27.6618 57.5034 27.8321 57.2644 27.8771ZM57.2118 27.7054C57.3279 27.6845 57.4092 27.6081 57.4255 27.5212L56.9123 27.6178C56.9768 27.6893 57.0945 27.7278 57.2118 27.7054ZM39.9636 31.1315C39.7252 31.1765 39.4841 31.0805 39.385 30.9146L39.0149 30.9831C39.1674 31.3084 39.6109 31.4988 40.0522 31.4159C40.4936 31.3329 40.7767 31.0058 40.7223 30.6634L40.3527 30.7323C40.3607 30.9158 40.2036 31.0857 39.9636 31.1315ZM39.911 30.9608C40.0275 30.9389 40.1088 30.8634 40.1241 30.7751L39.6131 30.8713C39.6776 30.9446 39.7955 30.9827 39.911 30.9608ZM41.9497 30.7582C41.7116 30.8027 41.4692 30.7079 41.3705 30.5406L41.001 30.6101C41.1535 30.9351 41.597 31.1255 42.0378 31.0424C42.4797 30.9594 42.763 30.6323 42.7074 30.2894L42.3379 30.3589C42.3468 30.5427 42.1887 30.7132 41.9497 30.7582ZM41.8971 30.5873C42.0142 30.5651 42.0955 30.4891 42.1096 30.4018L41.5976 30.4973C41.6633 30.5703 41.781 30.6092 41.8971 30.5873ZM43.9361 30.3842C43.6977 30.4292 43.4554 30.334 43.3578 30.1668L42.9871 30.2366C43.1396 30.5615 43.5837 30.7515 44.0241 30.6686C44.4664 30.5856 44.7473 30.2589 44.6941 29.9161L44.3234 29.985C44.3331 30.1694 44.1738 30.3387 43.9361 30.3842ZM43.8826 30.2135C43.9994 30.1916 44.0819 30.1152 44.0959 30.0283L43.5843 30.1244C43.6482 30.1968 43.7661 30.2349 43.8826 30.2135ZM47.503 24.1603L57.8332 22.2179L58.668 24.9114L48.338 26.8538L47.503 24.1603ZM36.9194 26.151L47.2496 24.2079L48.084 26.9019L37.7548 28.8446L36.9194 26.151ZM60.2011 25.9037L60.3038 25.8929L60.3508 26.1672L60.6213 26.1387L60.574 25.8644L60.9297 25.8273L61.0367 26.4498L60.5196 26.5031L60.5578 26.7232L60.5712 26.7965L63.6728 26.4729L63.3358 24.5127L62.2076 24.631L62.1789 24.466L80.9816 22.4995L80.8502 21.7379L80.175 21.8086L80.09 21.322L79.7025 21.3618L78.6492 20.2457L78.9072 20.2188L78.84 19.8343L60.7613 21.7248L60.8282 22.11L61.1095 22.0789L61.317 23.284L60.5061 23.3692L60.8286 25.2412L60.4731 25.2783L60.4416 25.0954L60.172 25.1242L60.2029 25.3066L60.0996 25.3174L60.1378 25.537L60.2399 25.5262L60.2656 25.6726L60.1631 25.6834L60.2011 25.9037ZM75.1172 21.6641L74.9646 20.78L76.7988 20.5878L76.9508 21.4723L75.1172 21.6641ZM74.5356 21.7248L72.7609 21.9103L72.6084 21.0263L74.3831 20.8407L74.5356 21.7248ZM77.5334 21.4116L77.3808 20.5267L78.3745 20.4236L79.1484 21.2425L77.5334 21.4116ZM60.8662 25.4609L60.8915 25.6073L60.536 25.6444L60.5107 25.498L60.8662 25.4609ZM75.1536 25.7597C74.9102 25.7849 74.6837 25.6701 74.6052 25.4971L74.2284 25.5365C74.3378 25.8715 74.7526 26.0968 75.2034 26.0497C75.6527 26.0025 75.9779 25.7004 75.969 25.3543L75.5921 25.3937C75.5769 25.5766 75.3965 25.7344 75.1536 25.7597ZM75.1233 25.5854C75.2422 25.5731 75.333 25.5037 75.3599 25.4181L74.8384 25.4728C74.8922 25.5499 75.0044 25.598 75.1233 25.5854ZM77.1773 25.5478C76.9357 25.5732 76.708 25.4592 76.6301 25.2854L76.2538 25.3247C76.362 25.6601 76.7781 25.8851 77.2283 25.8378C77.6776 25.7906 78.0028 25.4885 77.9939 25.1426L77.617 25.1823C77.6008 25.3657 77.4202 25.5216 77.1773 25.5478ZM77.1482 25.374C77.2671 25.3617 77.3591 25.2914 77.3838 25.2063L76.8627 25.2609C76.9183 25.3382 77.0287 25.3862 77.1482 25.374ZM79.2045 25.3359C78.9594 25.3609 78.7329 25.2473 78.6556 25.0735L78.2776 25.1133C78.3869 25.4483 78.803 25.674 79.2532 25.6261C79.7031 25.5792 80.0277 25.2766 80.0182 24.9316L79.6419 24.9705C79.6261 25.1543 79.4461 25.3116 79.2045 25.3359ZM79.1731 25.1621C79.292 25.1498 79.3834 25.0805 79.4097 24.9945L78.8876 25.049C78.9426 25.1264 79.0536 25.1744 79.1731 25.1621ZM62.516 27.0809C62.2731 27.1062 62.0456 26.9919 61.9698 26.8188L61.5918 26.8577C61.7 27.1923 62.1162 27.4181 62.567 27.3709C63.0161 27.3238 63.3413 27.0207 63.3324 26.6755L62.9543 26.7153C62.9393 26.8988 62.7599 27.0555 62.516 27.0809ZM62.4857 26.9071C62.6046 26.8948 62.6966 26.8255 62.7211 26.7398L62.2009 26.7939C62.2558 26.8705 62.3668 26.9193 62.4857 26.9071ZM64.5409 26.8691C64.298 26.8953 64.0708 26.7808 63.9935 26.6057L63.6178 26.6459C63.7255 26.9814 64.1415 27.2062 64.5907 27.1591C65.0404 27.1124 65.3656 26.8097 65.3561 26.4641L64.9788 26.5044C64.9642 26.6874 64.7836 26.8438 64.5409 26.8691ZM64.511 26.6953C64.6295 26.6829 64.7213 26.6136 64.7472 26.5279L64.2261 26.5822C64.2805 26.659 64.3923 26.7074 64.511 26.6953ZM66.5652 26.6581C66.3223 26.6839 66.0957 26.5691 66.019 26.3948L65.6421 26.4341C65.7504 26.7695 66.1664 26.9945 66.6156 26.9476C67.0653 26.9005 67.3905 26.5979 67.3816 26.2524L67.0036 26.2913C66.9891 26.4755 66.8085 26.6319 66.5652 26.6581ZM66.5359 26.4834C66.6554 26.4711 66.7462 26.4017 66.7721 26.3161L66.25 26.3712C66.3048 26.448 66.4176 26.4953 66.5359 26.4834ZM70.2605 23.7889L70.6053 25.7925L70.3934 25.8142L70.0486 23.8113L63.5478 24.4908L63.8853 26.4498L67.5879 26.0627L67.6166 26.2279L67.6463 26.4017L73.9716 25.7413L73.9413 25.5666L73.9126 25.4016L81.489 24.61L81.4761 24.5358L81.4391 24.317L81.2973 24.3309L81.2463 24.0382L81.5821 24.0033L81.4233 23.0824L81.0892 23.1174L81.0094 22.665L70.2605 23.7889ZM70.3861 20.2148L78.1917 19.3989L78.2421 19.6915L70.4365 20.5079L70.3861 20.2148ZM99.8436 21.6025C98.6161 20.9237 97.3914 20.2646 96.1689 19.6243C92.7533 21.5299 89.3239 23.5792 85.9016 25.7644C90.4588 25.5701 95.1119 25.4814 99.8436 25.5116V21.6025ZM99.8436 27.4469C93.9932 27.409 88.2667 27.5474 82.707 27.8457C78.3656 30.732 74.0501 33.8338 69.8085 37.1373C59.9954 44.7812 51.5644 52.7361 44.758 60.5317C51.5644 68.3268 59.9954 76.2827 69.8085 83.9262C72.1576 85.7559 74.53 87.5239 76.9165 89.2273C84.138 89.8651 91.6841 90.235 99.4539 90.2966L99.8436 90.2982V27.4469ZM99.8436 95.5523L99.3836 95.5508C94.7054 95.5136 90.1055 95.3611 85.6015 95.107C89.1225 97.3642 92.6536 99.4778 96.1683 101.439C97.3902 100.799 98.6161 100.14 99.8436 99.4611V95.5523ZM28.7755 79.2995C31.9998 73.2816 36.3973 66.947 41.8528 60.5317C35.3055 52.8327 30.2839 45.2502 26.9828 38.1919C13.1664 43.5307 4.80276 50.4706 4.70306 58.1155C4.59703 66.184 13.7126 73.6144 28.7755 79.2995ZM78.5545 28.0999C59.1576 29.4395 42.0121 32.7515 29.1349 37.3892C32.1956 44.0832 36.9922 51.3751 43.3108 58.8471C50.1049 51.1039 58.4169 43.2738 68.0516 35.7693C71.5069 33.0779 75.0163 30.5196 78.5545 28.0999ZM30.9141 80.0818C42.2196 84.0795 56.5669 87.133 72.7142 88.823C71.1509 87.6738 69.596 86.4975 68.0516 85.2946C58.4169 77.7899 50.1049 69.9603 43.3108 62.2168C38.1065 68.3718 33.9338 74.405 30.9141 80.0818Z" fill="white"/>
</mask>
<g mask="url(#mask0_1233_1183)">
<path d="M0 120.857H107.478V0.206133H0V120.857Z" fill="url(#paint0_linear_1233_1183)"/>
</g>
<defs>
<linearGradient id="paint0_linear_1233_1183" x1="8.54623" y1="62.0191" x2="28.0242" y2="70.3093" gradientUnits="userSpaceOnUse">
<stop stop-color="#046DD6"/>
<stop offset="1" stop-color="#0C37AD"/>
</linearGradient>
</defs>
</svg>
