<svg width="20" height="20" viewBox="0 0 20 20" fill="none" xmlns="http://www.w3.org/2000/svg">
<g clip-path="url(#clip0_998_1139)">
<path d="M12.9167 5C11.7683 5 10.8333 5.935 10.8333 7.08333C10.8333 8.23167 11.7683 9.16667 12.9167 9.16667C14.065 9.16667 15 8.23167 15 7.08333C15 5.935 14.065 5 12.9167 5ZM12.9167 8.33333C12.2275 8.33333 11.6667 7.7725 11.6667 7.08333C11.6667 6.39417 12.2275 5.83333 12.9167 5.83333C13.6058 5.83333 14.1667 6.39417 14.1667 7.08333C14.1667 7.7725 13.6058 8.33333 12.9167 8.33333ZM20 2.08333C20 0.935 19.065 0 17.905 0C13.7867 0.1175 10.035 2.12667 6.97917 5.83417C5.6575 5.85 4.33917 6.17083 3.15833 6.76333C1.24 7.72583 0 9.81417 0 12.0833V12.5H4.16667C5.05667 12.5 5.89417 12.8467 6.52417 13.4758C7.15333 14.1058 7.5 14.9425 7.5 15.8333V20H7.91667C10.1858 20 12.2742 18.7608 13.2367 16.8425C13.83 15.6617 14.15 14.3425 14.1658 13.0208C17.8725 9.965 19.8825 6.2125 20 2.08333ZM3.53167 7.50833C4.39333 7.07583 5.33583 6.80417 6.29583 6.7075C6.21417 6.8175 6.1325 6.92833 6.05167 7.04083C4.7575 8.84667 3.79167 10.9442 3.475 11.6667H0.849167C0.9875 9.875 2.01 8.27167 3.53167 7.50833ZM12.4917 16.4683C11.7275 17.99 10.125 19.0125 8.33333 19.1508V16.525C9.05667 16.2083 11.1533 15.2425 12.96 13.9483C13.0725 13.8675 13.1833 13.7867 13.2933 13.705C13.1967 14.665 12.925 15.6075 12.4925 16.4692L12.4917 16.4683ZM12.4742 13.2708C10.9717 14.3475 9.2125 15.2083 8.3275 15.6133C8.27417 14.5833 7.8475 13.6225 7.11333 12.8875C6.37833 12.1525 5.4175 11.7267 4.3875 11.6733C4.7925 10.7883 5.65333 9.02917 6.73 7.52667C8.8575 4.5575 12.5275 0.986667 17.9167 0.833333C18.6058 0.833333 19.1667 1.39417 19.1667 2.07167C19.0133 7.4725 15.4425 11.1425 12.4742 13.2708ZM1.44333 15.61C0.735 16.3175 0.260833 18.8442 0.173333 19.3433L0.07 19.9292L0.655833 19.8258C1.155 19.7383 3.68167 19.2642 4.38917 18.5558C4.7825 18.1625 4.99917 17.6392 4.99917 17.0825C4.99917 16.5258 4.7825 16.0025 4.38917 15.6092C3.60333 14.8225 2.22917 14.8233 1.44333 15.61ZM3.8 17.9667C3.47833 18.2883 2.18833 18.6592 1.11083 18.8883C1.34 17.8108 1.71083 16.5208 2.0325 16.1992C2.26833 15.9633 2.5825 15.8333 2.91667 15.8333C3.25083 15.8333 3.56417 15.9633 3.80083 16.1992C4.0375 16.435 4.16667 16.7492 4.16667 17.0833C4.16667 17.4175 4.03667 17.7308 3.80083 17.9675L3.8 17.9667Z" fill="white"/>
</g>
<defs>
<clipPath id="clip0_998_1139">
<rect width="20" height="20" fill="white"/>
</clipPath>
</defs>
</svg>
