<svg width="1841" height="314" viewBox="0 0 1841 314" fill="none" xmlns="http://www.w3.org/2000/svg">
<mask id="mask0_1233_1191" style="mask-type:luminance" maskUnits="userSpaceOnUse" x="0" y="0" width="297" height="304">
<path d="M287.898 265.812C202.797 304.179 121.528 315.889 84.3161 290.563C60.1397 274.108 58.9435 244.992 76.526 210.728C28.7423 194.63 -0.342624 173.265 0.00304719 149.999C0.347578 127.186 28.9123 106.593 75.5072 91.2543C58.9948 57.8657 60.6154 29.568 84.3161 13.4362C121.528 -11.8898 202.797 -0.178131 287.898 38.1893V19.7126C287.898 18.009 289.945 16.6159 292.448 16.6159C294.949 16.6159 297 18.009 297 19.7126V284.289C297 285.993 294.953 287.386 292.451 287.386C289.949 287.386 287.898 285.993 287.898 284.289V265.812ZM129.433 178.654L134.45 168.54L136.146 168.928L131.13 179.043L129.433 178.654ZM125.425 196.943C125.583 196.633 126.083 196.466 126.541 196.575C126.995 196.682 127.238 197.023 127.079 197.334L123.436 204.475C123.279 204.785 122.781 204.949 122.325 204.84C121.866 204.734 121.625 204.394 121.782 204.083L125.425 196.943ZM130.311 198.097C130.47 197.786 130.969 197.622 131.425 197.729C131.881 197.838 132.125 198.178 131.965 198.488L128.324 205.628C128.166 205.939 127.666 206.104 127.21 205.995C126.754 205.888 126.51 205.549 126.67 205.238L130.311 198.097ZM135.198 199.252C135.355 198.94 135.854 198.777 136.312 198.883C136.769 198.992 137.01 199.332 136.853 199.642L133.21 206.783C133.052 207.094 132.55 207.258 132.096 207.15C131.638 207.041 131.398 206.704 131.554 206.393L135.198 199.252ZM115.652 194.633C115.812 194.325 116.312 194.159 116.766 194.266C117.224 194.374 117.466 194.714 117.308 195.026L113.666 202.165C113.508 202.478 113.009 202.64 112.551 202.532C112.095 202.425 111.854 202.086 112.011 201.775L115.652 194.633ZM110.822 193.371C110.979 193.059 111.48 192.894 111.936 193.002C112.394 193.111 112.635 193.451 112.476 193.761L108.835 200.901C108.677 201.212 108.18 201.377 107.723 201.269C107.265 201.162 107.023 200.821 107.179 200.511L110.822 193.371ZM105.936 192.217C106.095 191.906 106.594 191.741 107.052 191.849C107.507 191.956 107.75 192.296 107.593 192.607L103.952 199.746C103.79 200.058 103.29 200.223 102.836 200.115C102.379 200.007 102.136 199.668 102.294 199.357L105.936 192.217ZM120.539 195.789C120.695 195.478 121.196 195.313 121.653 195.421C122.11 195.529 122.353 195.869 122.194 196.18L118.553 203.32C118.394 203.631 117.895 203.795 117.439 203.687C116.981 203.579 116.737 203.24 116.897 202.929L120.539 195.789ZM103.048 188.355L96.4557 201.28C96.2977 201.593 96.5384 201.931 96.9942 202.038L134.984 211.014C135.442 211.122 135.938 210.957 136.097 210.645L142.692 197.719C142.849 197.407 142.61 197.067 142.152 196.96L104.164 187.985C103.706 187.878 103.208 188.042 103.048 188.355ZM130.384 180.123C131.171 180.57 131.471 181.301 131.132 181.964C130.795 182.626 129.891 183.074 128.867 183.095L128.426 183.96C128.267 184.27 127.768 184.436 127.31 184.327C126.974 184.249 126.603 184.328 126.397 184.526L126.736 184.474C127.052 184.423 127.401 184.494 127.62 184.675L127.887 184.902C128.099 184.669 128.524 184.56 128.917 184.655C129.375 184.761 129.617 185.1 129.458 185.412C129.365 185.591 129.236 185.753 129.077 185.895L140.276 195.256L137.139 194.514L127.596 186.538C126.665 186.677 125.679 186.445 125.076 185.943L110.324 188.178L107.187 187.437L124.497 184.814C124.503 184.633 124.545 184.453 124.639 184.273C124.988 183.584 125.939 183.118 127.008 183.106L127.213 182.702C126.426 182.255 126.125 181.522 126.465 180.861C126.801 180.2 127.705 179.75 128.728 179.732L128.807 179.576C128.964 179.264 129.464 179.101 129.921 179.208C130.379 179.317 130.621 179.656 130.463 179.967L130.384 180.123ZM186.947 282.68C186.886 282.518 186.807 282.356 186.703 282.197C185.686 280.623 182.977 279.906 180.666 280.598C178.353 281.29 177.299 283.134 178.316 284.708C178.418 284.866 178.539 285.015 178.675 285.158L177.692 285.451L177.328 284.89L172.713 286.271L172.301 285.633L171.282 285.938L170.369 284.524L171.388 284.22L169.164 280.78L170.33 274.772L178.475 269.801L182.181 268.692L181.131 267.069L182.292 266.722L190.276 279.077L191.499 278.712L182.89 265.389L247.904 245.926C243.437 243.495 238.978 240.996 234.532 238.429C175.643 234.717 123.104 225.553 82.7555 212.769C67.9657 242.431 69.0444 267.182 89.5143 281.114C121.817 303.099 193.692 292.225 271.056 257.891L268.772 256.768L252.481 261.686L253.231 262.87L252.244 263.159C252.185 262.995 252.106 262.833 252.004 262.674C251.005 261.094 248.305 260.364 245.984 261.044C243.664 261.724 242.59 263.563 243.591 265.141C243.691 265.301 243.811 265.452 243.944 265.593L243.666 265.675L243.696 265.723L242.708 266.013C242.65 265.85 242.571 265.687 242.469 265.527C241.47 263.949 238.77 263.218 236.449 263.899C234.131 264.579 233.055 266.418 234.055 267.996C234.157 268.156 234.276 268.306 234.409 268.448L233.423 268.737L232.706 267.605L217.357 272.2L218.107 273.384L217.121 273.673C217.061 273.51 216.982 273.348 216.881 273.188C215.881 271.609 213.18 270.878 210.862 271.558C208.541 272.24 207.468 274.078 208.467 275.656C208.567 275.815 208.687 275.966 208.821 276.108L208.541 276.19L208.572 276.239L207.586 276.527C207.526 276.364 207.447 276.202 207.344 276.043C206.346 274.464 203.645 273.733 201.327 274.413C199.006 275.093 197.933 276.932 198.932 278.51C199.032 278.67 199.152 278.821 199.286 278.963L198.298 279.252L197.582 278.12L196.931 278.314L197.287 278.865L188.716 281.431L188.36 280.881L187.185 281.232L187.93 282.386L186.947 282.68ZM178.767 279.412L176.4 280.121L176.583 280.403L178.95 279.695L178.767 279.412ZM178.132 278.429L176.258 275.529L171.523 276.946L170.812 280.62C173.084 279.94 175.857 279.11 178.132 278.429ZM179.058 284.485C178.221 283.188 179.085 281.674 180.992 281.103C182.897 280.533 185.123 281.122 185.961 282.419C186.799 283.716 185.933 285.23 184.027 285.801C182.121 286.372 179.897 285.783 179.058 284.485ZM183.374 284.791C184.459 284.466 184.953 283.601 184.476 282.863C184 282.125 182.729 281.789 181.644 282.113C180.561 282.438 180.065 283.302 180.542 284.041C181.02 284.779 182.291 285.116 183.374 284.791ZM181.797 283.665C181.624 283.398 181.804 283.085 182.197 282.967C182.59 282.85 183.049 282.971 183.222 283.239C183.395 283.507 183.215 283.819 182.822 283.937C182.429 284.055 181.97 283.933 181.797 283.665ZM199.676 278.292C198.853 276.991 199.734 275.481 201.647 274.92C203.558 274.359 205.776 274.96 206.601 276.261C207.425 277.563 206.542 279.072 204.63 279.633C202.719 280.194 200.5 279.593 199.676 278.292ZM203.99 278.619C205.078 278.3 205.581 277.439 205.112 276.698C204.643 275.957 203.377 275.615 202.288 275.933C201.2 276.253 200.696 277.115 201.165 277.856C201.633 278.596 202.901 278.938 203.99 278.619ZM202.801 276.803C203.192 276.682 203.653 276.801 203.829 277.067C204.006 277.335 203.831 277.647 203.44 277.769C203.049 277.887 202.588 277.77 202.411 277.503C202.235 277.236 202.41 276.923 202.801 276.803ZM209.211 275.438C208.388 274.137 209.269 272.627 211.182 272.066C213.093 271.504 215.313 272.105 216.136 273.406C216.96 274.708 216.077 276.218 214.167 276.779C212.253 277.34 210.035 276.74 209.211 275.438ZM213.524 275.764C214.613 275.446 215.116 274.584 214.647 273.843C214.178 273.102 212.912 272.76 211.823 273.079C210.736 273.399 210.232 274.26 210.701 275.001C211.17 275.742 212.436 276.085 213.524 275.764ZM211.96 274.632C211.79 274.364 211.972 274.052 212.367 273.937C212.76 273.82 213.217 273.944 213.387 274.213C213.559 274.481 213.376 274.793 212.981 274.908C212.587 275.024 212.129 274.899 211.96 274.632ZM234.8 267.778C233.977 266.476 234.858 264.966 236.771 264.406C238.682 263.845 240.901 264.445 241.726 265.746C242.548 267.048 241.667 268.557 239.754 269.119C237.842 269.68 235.624 269.079 234.8 267.778ZM239.113 268.105C240.2 267.786 240.705 266.924 240.236 266.182C239.767 265.443 238.499 265.101 237.412 265.419C236.323 265.738 235.82 266.6 236.289 267.341C236.758 268.081 238.024 268.424 239.113 268.105ZM237.549 266.971C237.379 266.703 237.56 266.392 237.955 266.276C238.349 266.16 238.807 266.284 238.977 266.552C239.146 266.821 238.964 267.132 238.571 267.248C238.176 267.363 237.718 267.24 237.549 266.971ZM244.335 264.923C243.512 263.621 244.393 262.112 246.306 261.551C248.218 260.99 250.436 261.591 251.26 262.892C252.083 264.194 251.202 265.704 249.289 266.264C247.377 266.825 245.16 266.224 244.335 264.923ZM248.648 265.25C249.735 264.931 250.24 264.069 249.771 263.329C249.302 262.588 248.036 262.246 246.947 262.565C245.86 262.884 245.355 263.746 245.824 264.486C246.293 265.227 247.559 265.569 248.648 265.25ZM247.474 263.431C247.866 263.311 248.327 263.43 248.502 263.696C248.678 263.963 248.505 264.276 248.114 264.396C247.721 264.516 247.262 264.397 247.085 264.131C246.909 263.865 247.082 263.551 247.474 263.431ZM90.6089 84.7447C89.9524 84.9342 89.2154 84.7719 88.8287 84.3894L87.8213 84.6775C88.4471 85.4369 89.8252 85.7692 91.0328 85.4225C92.2295 85.077 92.8438 84.1736 92.4833 83.3381L91.4708 83.6277C91.61 84.0823 91.2592 84.5564 90.6089 84.7447ZM106.198 74.7961L106.52 75.3101L104.906 75.7744L105.118 76.1176L106.732 75.6533L107.052 76.1685L105.438 76.6339L105.742 77.1282L106.861 76.8056L107.778 78.2824L107.886 78.4552L86.8043 84.516L87.0455 84.9012L87.3028 85.308L80.8189 87.1716C81.1338 87.8646 81.4572 88.5591 81.792 89.2579C122.548 76.6759 175.884 67.9529 235.654 64.9254C247.407 58.1759 259.243 51.8941 271.056 46.1097C193.693 11.7758 121.817 0.900421 89.5143 22.8864C73.1029 34.0569 69.159 52.1815 75.8626 74.2183L99.6899 67.3717L103.681 73.8033L78.2543 81.1096L78.414 81.5192L103.92 74.1896L104.582 75.2581L106.198 74.7961ZM90.3522 84.3362C90.6722 84.2438 90.8565 84.0272 90.8485 83.8071L89.4533 84.2089C89.6763 84.3685 90.0351 84.4279 90.3522 84.3362ZM96.0353 83.1832C95.3856 83.3722 94.6418 83.2103 94.2539 82.8256L93.2465 83.1172C93.8751 83.8773 95.2498 84.2089 96.4574 83.8622C97.6604 83.5155 98.2719 82.6109 97.908 81.7766L96.8972 82.0693C97.033 82.5228 96.6873 82.9984 96.0353 83.1832ZM95.7815 82.7759C96.1003 82.6858 96.288 82.47 96.2749 82.2463L94.8779 82.6482C95.1027 82.8089 95.458 82.8671 95.7815 82.7759ZM101.462 81.6236C100.809 81.8096 100.068 81.6547 99.6831 81.268L98.6746 81.5576C99.2986 82.3158 100.678 82.6505 101.881 82.3027C103.085 81.9548 103.7 81.0537 103.333 80.2182L102.324 80.5067C102.459 80.9644 102.117 81.4345 101.462 81.6236ZM101.21 81.2121C101.527 81.1252 101.713 80.9073 101.706 80.6884L100.306 81.0898C100.532 81.2474 100.886 81.3057 101.21 81.2121ZM153.668 71.6035C152.979 71.7169 152.285 71.477 151.999 71.0584L150.931 71.2316C151.372 72.0481 152.651 72.5299 153.924 72.3199C155.191 72.1118 156.01 71.2875 155.852 70.4237L154.786 70.5988C154.813 71.062 154.355 71.4909 153.668 71.6035ZM171.42 63.5056L171.612 64.0484L169.908 64.3291L170.039 64.6898L171.741 64.4102L171.934 64.9553L170.23 65.2348L170.414 65.7551L171.598 65.5606L172.149 67.1209L172.212 67.3026L149.97 70.9587L150.115 71.3655L150.27 71.7961L129.692 75.178L129.54 74.7487L129.396 74.3403L109.547 77.6034L109.483 77.4217L108.929 75.8625L110.111 75.6688L109.01 72.5675L138.796 67.6711L139.898 70.7735L140.627 70.6516L139.528 67.5511L169.315 62.6562L169.716 63.784L171.42 63.5056ZM153.515 71.1741C153.85 71.119 154.085 70.9264 154.13 70.7063L152.655 70.9486C152.84 71.1315 153.179 71.2293 153.515 71.1741ZM159.395 70.6625C158.707 70.777 158.012 70.5359 157.721 70.1143L156.662 70.2905C157.099 71.1081 158.374 71.5892 159.649 71.3788C160.919 71.1687 161.736 70.3464 161.579 69.4814L160.514 69.6565C160.536 70.1208 160.082 70.5514 159.395 70.6625ZM159.241 70.2323C159.577 70.1771 159.815 69.9846 159.856 69.7645L158.381 70.0075C158.565 70.1904 158.903 70.2882 159.241 70.2323ZM165.122 69.7214C164.432 69.8328 163.74 69.5948 163.452 69.1735L162.386 69.3494C162.822 70.167 164.102 70.6469 165.376 70.4381C166.644 70.2288 167.463 69.4045 167.303 68.5407L166.239 68.7158C166.264 69.179 165.811 69.608 165.122 69.7214ZM164.97 69.2889C165.305 69.2361 165.539 69.0435 165.586 68.8245L164.106 69.0679C164.292 69.2481 164.632 69.3452 164.97 69.2889ZM115.235 77.9214C114.548 78.0347 113.852 77.7929 113.566 77.3747L112.499 77.5475C112.939 78.3671 114.218 78.8469 115.49 78.638C116.763 78.4288 117.579 77.6045 117.422 76.7419L116.357 76.9155C116.38 77.3778 115.927 77.806 115.235 77.9214ZM115.083 77.4912C115.419 77.4361 115.654 77.2458 115.698 77.0234L114.224 77.2656C114.41 77.4504 114.75 77.5463 115.083 77.4912ZM120.962 76.9807C120.275 77.0929 119.576 76.8541 119.292 76.4324L118.226 76.6076C118.666 77.4264 119.945 77.9062 121.216 77.6969C122.49 77.4877 123.307 76.6635 123.147 75.7997L122.081 75.9747C122.107 76.4379 121.651 76.8673 120.962 76.9807ZM120.81 76.5501C121.148 76.4942 121.382 76.3028 121.423 76.0826L119.947 76.3234C120.136 76.5074 120.475 76.6052 120.81 76.5501ZM126.689 76.0384C126.002 76.1517 125.303 75.9118 125.022 75.4906L123.953 75.6665C124.393 76.4853 125.674 76.964 126.943 76.7551C128.219 76.5458 129.029 75.7227 128.875 74.8589L127.806 75.0325C127.834 75.4972 127.375 75.9239 126.689 76.0384ZM126.535 75.6082C126.872 75.5531 127.11 75.3605 127.15 75.1415L125.675 75.3838C125.859 75.5663 126.199 75.6622 126.535 75.6082ZM136.975 60.3562L166.762 55.4621L169.169 62.2489L139.382 67.143L136.975 60.3562ZM106.457 65.3723L136.244 60.4762L138.65 67.2642L108.866 72.1591L106.457 65.3723ZM173.59 64.7492L173.886 64.722L174.021 65.413L174.801 65.3412L174.665 64.6501L175.69 64.5566L175.999 66.1251L174.508 66.2594L174.618 66.8138L174.657 66.9986L183.6 66.1833L182.628 61.2442L179.375 61.5423L179.293 61.1265L233.51 56.1718L233.131 54.2527L231.184 54.4309L230.939 53.2048L229.822 53.305L226.785 50.493L227.529 50.4251L227.335 49.4564L175.205 54.2197L175.398 55.1903L176.209 55.1119L176.807 58.1483L174.469 58.363L175.399 63.0797L174.374 63.1733L174.283 62.7124L173.506 62.7851L173.595 63.2447L173.297 63.2719L173.407 63.8251L173.701 63.798L173.775 64.1668L173.48 64.194L173.59 64.7492ZM216.6 54.0667L216.16 51.839L221.449 51.3549L221.887 53.5834L216.6 54.0667ZM214.923 54.2197L209.806 54.6871L209.366 52.4598L214.483 51.992L214.923 54.2197ZM223.567 53.4304L223.127 51.2008L225.992 50.941L228.224 53.0045L223.567 53.4304ZM175.507 63.6334L175.58 64.0022L174.555 64.0958L174.482 63.7269L175.507 63.6334ZM216.705 64.3862C216.003 64.4498 215.35 64.1606 215.124 63.7246L214.037 63.824C214.353 64.668 215.549 65.2356 216.849 65.1168C218.144 64.998 219.082 64.2367 219.056 63.3647L217.97 63.4641C217.926 63.9249 217.405 64.3225 216.705 64.3862ZM216.618 63.9471C216.96 63.916 217.222 63.7413 217.3 63.5255L215.796 63.6632C215.951 63.8578 216.275 63.9789 216.618 63.9471ZM222.54 63.8523C221.844 63.9164 221.187 63.6291 220.962 63.1912L219.878 63.2901C220.19 64.1353 221.389 64.7022 222.687 64.583C223.983 64.4642 224.921 63.7029 224.895 62.8313L223.808 62.9314C223.762 63.3934 223.241 63.7863 222.54 63.8523ZM222.456 63.4144C222.799 63.3833 223.064 63.2063 223.136 62.992L221.633 63.1294C221.794 63.3243 222.112 63.445 222.456 63.4144ZM228.386 63.3185C227.679 63.3814 227.026 63.0953 226.803 62.6573L225.713 62.7575C226.028 63.6015 227.228 64.1703 228.526 64.0495C229.823 63.9315 230.759 63.169 230.732 62.2998L229.647 62.3976C229.601 62.8608 229.082 63.2572 228.386 63.3185ZM228.295 62.8806C228.638 62.8495 228.902 62.6748 228.977 62.4582L227.472 62.5956C227.631 62.7905 227.951 62.9116 228.295 62.8806ZM180.265 67.7153C179.564 67.779 178.908 67.4909 178.69 67.0549L177.6 67.1528C177.912 67.996 179.112 68.5648 180.412 68.446C181.707 68.3272 182.644 67.5635 182.619 66.6939L181.529 66.794C181.485 67.2564 180.968 67.6512 180.265 67.7153ZM180.177 67.2774C180.52 67.2463 180.785 67.0716 180.856 66.8557L179.356 66.992C179.514 67.185 179.834 67.3081 180.177 67.2774ZM186.103 67.1815C185.403 67.2475 184.748 66.959 184.525 66.518L183.442 66.6193C183.752 67.4645 184.952 68.031 186.247 67.9122C187.544 67.7945 188.481 67.032 188.454 66.1612L187.366 66.2625C187.324 66.7238 186.803 67.1178 186.103 67.1815ZM186.017 66.7436C186.359 66.7125 186.624 66.5378 186.698 66.3219L185.196 66.4586C185.353 66.6523 185.675 66.7742 186.017 66.7436ZM191.94 66.65C191.24 66.7148 190.587 66.4256 190.365 65.9865L189.279 66.0855C189.591 66.9307 190.79 67.4975 192.086 67.3795C193.382 67.2607 194.32 66.4982 194.294 65.6277L193.204 65.7256C193.163 66.1899 192.642 66.584 191.94 66.65ZM191.856 66.2097C192.2 66.1786 192.462 66.004 192.537 65.7881L191.032 65.9271C191.19 66.1204 191.515 66.2396 191.856 66.2097ZM202.596 59.4205L203.59 64.4689L202.979 64.5236L201.985 59.4769L183.24 61.189L184.213 66.1251L194.889 65.1498L194.972 65.566L195.058 66.004L213.297 64.34L213.209 63.8997L213.127 63.4839L234.973 61.4895L234.936 61.3024L234.829 60.7511L234.42 60.786L234.273 60.0487L235.242 59.9606L234.784 57.6405L233.82 57.7286L233.59 56.5888L202.596 59.4205ZM202.958 50.4149L225.465 48.3592L225.611 49.0965L203.103 51.1534L202.958 50.4149ZM287.898 53.9115C284.359 52.2013 280.828 50.5404 277.302 48.9272C267.454 53.7286 257.565 58.8922 247.697 64.3982C260.837 63.9086 274.255 63.685 287.898 63.7611V53.9115ZM287.898 68.6374C271.029 68.5419 254.517 68.8905 238.485 69.6422C225.967 76.9147 213.523 84.7303 201.292 93.0538C172.996 112.314 148.686 132.358 129.059 152C148.686 171.641 172.996 191.687 201.292 210.946C208.066 215.556 214.907 220.011 221.788 224.303C242.611 225.91 264.371 226.842 286.775 226.997L287.898 227.001V68.6374ZM287.898 240.24L286.572 240.236C273.082 240.142 259.819 239.758 246.831 239.118C256.984 244.805 267.166 250.131 277.301 255.073C280.824 253.459 284.359 251.799 287.898 250.089V240.24ZM82.9739 199.288C92.2711 184.125 104.951 168.164 120.682 152C101.803 132.601 87.3233 113.496 77.8048 95.7113C37.9653 109.163 13.8487 126.649 13.5612 145.912C13.2555 166.242 39.5402 184.964 82.9739 199.288ZM226.512 70.2827C170.581 73.6581 121.142 82.0033 84.0104 93.6886C92.8359 110.555 106.667 128.928 124.886 147.755C144.477 128.245 168.445 108.516 196.226 89.607C206.19 82.8256 216.309 76.3797 226.512 70.2827ZM89.1407 201.259C121.74 211.332 163.11 219.026 209.671 223.284C205.163 220.389 200.68 217.425 196.226 214.394C168.445 195.485 144.477 175.757 124.886 156.246C109.88 171.754 97.8481 186.956 89.1407 201.259Z" fill="white"/>
</mask>
<g mask="url(#mask0_1233_1191)">
<path d="M0 304H297V0H0V304Z" fill="#ECEDEF"/>
</g>
<path d="M459.543 12.194H584.938V39.2357H490.651V88.564H569.385V115.118H490.651V186.495H459.543V12.194ZM602.714 99.4056C602.714 82.8392 607.248 67.7375 616.279 54.0944C625.303 40.4523 637.615 29.6934 653.261 21.8162C668.908 13.9399 686.173 10.0009 705.059 10.0009C724.036 10.0009 741.35 13.9399 756.993 21.8162C772.64 29.6934 785 40.4523 794.072 54.0944C803.143 67.7375 807.68 82.8392 807.68 99.4056C807.68 115.888 803.143 130.955 794.072 144.595C785 158.238 772.64 168.996 756.993 176.873C741.35 184.75 724.036 188.688 705.059 188.688C686.173 188.688 668.908 184.75 653.261 176.873C637.615 168.996 625.303 158.238 616.279 144.595C607.248 130.955 602.714 115.888 602.714 99.4056ZM634.098 99.4056C634.098 110.855 637.245 121.33 643.54 130.872C649.838 140.414 658.401 147.925 669.232 153.405C680.064 158.887 692.05 161.648 705.198 161.648C718.345 161.648 730.331 158.887 741.163 153.405C751.994 147.925 760.56 140.414 766.854 130.872C773.149 121.33 776.299 110.855 776.299 99.4056C776.299 87.8739 773.149 77.3598 766.854 67.8594C760.56 58.3582 751.994 50.8446 741.163 45.3233C730.331 39.8021 718.345 37.0415 705.198 37.0415C692.05 37.0415 680.064 39.8021 669.232 45.3233C658.401 50.8446 649.838 58.3582 643.54 67.8594C637.245 77.3598 634.098 87.8739 634.098 99.4056ZM846.981 186.495V12.194H919.191C930.577 12.194 940.992 14.4683 950.39 19.0557C959.787 23.6413 967.192 29.9771 972.608 38.0162C978.024 46.0553 980.71 55.0283 980.71 64.936C980.71 73.7044 978.3 81.6643 973.487 88.8478C968.674 96.0367 962.611 101.679 955.297 105.78C947.983 109.881 940.854 111.991 933.91 112.071L929.882 112.195V112.316C933.957 112.723 937.29 113.535 939.881 114.754C942.473 115.971 944.698 117.716 946.546 119.989L1002.65 186.495H978.209C974.043 186.495 970.293 185.845 966.96 184.588C963.628 183.33 960.619 181.095 957.933 177.848L907.11 118.041H878.365V186.495H846.981ZM878.365 91.0028H917.8C923.634 91.0028 928.958 89.8634 933.772 87.5902C938.586 85.3169 942.382 82.1899 945.159 78.2126C947.936 74.2336 949.325 69.8071 949.325 64.936C949.325 59.9022 947.936 55.4357 945.159 51.5384C942.382 47.6384 938.586 44.5941 933.772 42.4418C928.958 40.2895 923.587 39.2357 917.663 39.2357H878.365V91.0028ZM1277.74 12.194L1198.73 186.495H1168.04L1136.38 122.183C1135.45 120.235 1134.99 117.84 1134.99 114.997C1134.99 111.425 1135.78 107.646 1137.35 103.668L1136.93 103.547L1100.13 186.495H1069.03L989.872 12.194H1010.84C1019.36 12.194 1025.19 15.6049 1028.34 22.4246L1082.22 140.821C1083.79 144.148 1084.86 148.574 1085.41 154.095H1085.83C1086.38 148.979 1087.36 144.553 1088.75 140.821L1139.16 22.4246C1142.02 15.6049 1147.72 12.194 1156.23 12.194H1177.34L1149.01 75.8985L1178.73 140.089C1180.21 143.416 1181.23 148.088 1181.79 154.095H1182.2C1182.76 148.249 1183.78 143.824 1185.26 140.821L1240.53 19.7466C1241.82 16.986 1243.44 15.0347 1245.39 13.9008C1247.33 12.7614 1250.02 12.194 1253.44 12.194H1277.74ZM1448.83 186.495H1427.58C1423.51 186.495 1419.85 185.562 1416.61 183.735C1413.37 181.907 1410.96 179.391 1409.39 176.141L1395.78 148.737H1300.52L1286.91 176.141C1285.33 179.391 1282.98 181.907 1279.78 183.735C1276.59 185.562 1272.93 186.495 1268.85 186.495H1247.47L1334.26 12.194H1362.03L1448.83 186.495ZM1383.28 123.399L1354.12 64.6914C1351.99 60.4696 1350.6 57.0978 1349.95 54.6236C1349.3 52.1467 1348.93 49.507 1348.84 46.6637H1347.45C1347.36 49.507 1346.99 52.1467 1346.34 54.6236C1345.7 57.0978 1344.35 60.4696 1342.32 64.6914L1313.15 123.399H1383.28ZM1474.1 186.495V12.194H1546.31C1557.7 12.194 1568.11 14.4683 1577.51 19.0557C1586.9 23.6413 1594.31 29.9771 1599.72 38.0162C1605.14 46.0553 1607.83 55.0283 1607.83 64.936C1607.83 73.7044 1605.42 81.6643 1600.61 88.8478C1595.79 96.0367 1589.73 101.679 1582.41 105.78C1575.1 109.881 1567.97 111.991 1561.03 112.071L1557 112.195V112.316C1561.08 112.723 1564.41 113.535 1567 114.754C1569.59 115.971 1571.81 117.716 1573.67 119.989L1629.77 186.495H1605.33C1601.16 186.495 1597.41 185.845 1594.08 184.588C1590.75 183.33 1587.74 181.095 1585.05 177.848L1534.23 118.041H1505.48V186.495H1474.1ZM1505.48 91.0028H1544.92C1550.75 91.0028 1556.08 89.8634 1560.89 87.5902C1565.71 85.3169 1569.5 82.1899 1572.28 78.2126C1575.06 74.2336 1576.44 69.8071 1576.44 64.936C1576.44 59.9022 1575.06 55.4357 1572.28 51.5384C1569.5 47.6384 1565.71 44.5941 1560.89 42.4418C1556.08 40.2895 1550.71 39.2357 1544.78 39.2357H1505.48V91.0028ZM1658.37 12.194H1735.58C1753.91 12.194 1770.72 16.0504 1785.99 23.7649C1801.27 31.4793 1813.35 41.9962 1822.19 55.3529C1831.03 68.7122 1835.43 83.4093 1835.43 99.4056C1835.43 115.402 1831.03 130.06 1822.19 143.378C1813.35 156.694 1801.27 167.21 1785.99 174.924C1770.72 182.639 1753.91 186.495 1735.58 186.495H1658.37V12.194ZM1735.58 161.037C1748.08 161.037 1759.61 158.317 1770.12 152.879C1780.62 147.437 1788.91 140.007 1794.97 130.588C1801.04 121.168 1804.04 110.775 1804.04 99.4056C1804.04 88.0385 1801.04 77.6043 1794.97 68.1422C1788.91 58.6828 1780.62 51.252 1770.16 45.8108C1759.7 40.3696 1748.17 37.6498 1735.58 37.6498H1689.76V161.037H1735.58Z" fill="#ECEDEF"/>
<path d="M1750.71 304.107V205.475H1797.74C1806.78 205.475 1814.48 206.903 1820.84 209.761C1827.21 212.586 1832.06 216.519 1835.39 221.56C1838.77 226.569 1840.46 232.348 1840.46 238.898C1840.46 245.448 1838.75 251.227 1835.34 256.235C1831.92 261.244 1826.97 265.145 1820.49 267.938C1814.05 270.732 1806.25 272.128 1797.1 272.128H1767.12V255.417H1793.02C1797.87 255.417 1801.87 254.726 1805.01 253.346C1808.19 251.933 1810.56 249.991 1812.11 247.518C1813.7 245.014 1814.5 242.141 1814.5 238.898C1814.5 235.623 1813.7 232.765 1812.11 230.325C1810.56 227.853 1808.19 225.943 1805.01 224.594C1801.83 223.214 1797.8 222.523 1792.91 222.523H1775.91V304.107H1750.71Z" fill="#ECEDEF"/>
<path d="M1704.77 205.475H1729.97V269.528C1729.97 276.72 1727.9 283.013 1723.75 288.407C1719.63 293.8 1713.87 298.006 1706.46 301.024C1699.05 304.01 1690.42 305.503 1680.56 305.503C1670.67 305.503 1662.01 304.01 1654.6 301.024C1647.19 298.006 1641.43 293.8 1637.32 288.407C1633.2 283.013 1631.15 276.72 1631.15 269.528V205.475H1656.35V267.746C1656.35 271.502 1657.34 274.841 1659.32 277.763C1661.33 280.685 1664.17 282.98 1667.81 284.65C1671.46 286.32 1675.71 287.154 1680.56 287.154C1685.45 287.154 1689.7 286.32 1693.31 284.65C1696.95 282.98 1699.77 280.685 1701.75 277.763C1703.76 274.841 1704.77 271.502 1704.77 267.746V205.475Z" fill="#ECEDEF"/>
<path d="M1612.48 254.792C1612.48 265.548 1610.02 274.699 1605.09 282.244C1600.2 289.789 1593.52 295.552 1585.07 299.533C1576.65 303.482 1567.18 305.457 1556.66 305.457C1546.07 305.457 1536.56 303.466 1528.14 299.485C1519.72 295.504 1513.07 289.741 1508.18 282.196C1503.29 274.651 1500.85 265.516 1500.85 254.792C1500.85 244.037 1503.29 234.886 1508.18 227.341C1513.07 219.796 1519.72 214.049 1528.14 210.1C1536.56 206.119 1546.07 204.128 1556.66 204.128C1567.18 204.128 1576.65 206.119 1585.07 210.1C1593.52 214.049 1600.2 219.796 1605.09 227.341C1610.02 234.886 1612.48 244.037 1612.48 254.792ZM1586.93 254.792C1586.93 247.825 1585.67 241.95 1583.15 237.166C1580.66 232.382 1577.15 228.754 1572.61 226.282C1568.07 223.809 1562.76 222.573 1556.66 222.573C1550.57 222.573 1545.26 223.809 1540.72 226.282C1536.18 228.754 1532.65 232.382 1530.12 237.166C1527.64 241.95 1526.4 247.825 1526.4 254.792C1526.4 261.76 1527.64 267.635 1530.12 272.419C1532.65 277.203 1536.18 280.831 1540.72 283.303C1545.26 285.776 1550.57 287.012 1556.66 287.012C1562.76 287.012 1568.07 285.776 1572.61 283.303C1577.15 280.831 1580.66 277.203 1583.15 272.419C1585.67 267.635 1586.93 261.76 1586.93 254.792Z" fill="#ECEDEF"/>
<path d="M1395.39 304.107V205.475H1442.41C1451.41 205.475 1459.1 206.807 1465.46 209.472C1471.86 212.105 1476.73 215.845 1480.07 220.693C1483.45 225.509 1485.13 231.176 1485.13 237.694C1485.13 244.244 1483.43 249.878 1480.01 254.598C1476.6 259.286 1471.65 262.882 1465.17 265.386C1458.73 267.89 1450.93 269.142 1441.77 269.142H1410.29V252.383H1437.7C1442.51 252.383 1446.51 251.837 1449.69 250.745C1452.87 249.654 1455.24 248.016 1456.79 245.833C1458.38 243.65 1459.18 240.937 1459.18 237.694C1459.18 234.419 1458.38 231.658 1456.79 229.41C1455.24 227.163 1452.85 225.461 1449.63 224.305C1446.45 223.117 1442.43 222.523 1437.58 222.523H1420.59V304.107H1395.39ZM1459.76 259.221L1489.38 304.107H1461.56L1432.58 259.221H1459.76Z" fill="#ECEDEF"/>
<path d="M1349.74 237.358C1348.93 235.015 1347.78 232.944 1346.31 231.146C1344.83 229.316 1343.03 227.775 1340.89 226.522C1338.8 225.238 1336.39 224.259 1333.68 223.585C1331 222.91 1328.03 222.573 1324.77 222.573C1318.68 222.573 1313.33 223.825 1308.71 226.33C1304.13 228.834 1300.56 232.478 1298 237.262C1295.44 242.014 1294.16 247.825 1294.16 254.696C1294.16 261.567 1295.42 267.41 1297.94 272.226C1300.46 277.043 1304.03 280.719 1308.65 283.255C1313.27 285.76 1318.72 287.012 1325.01 287.012C1330.71 287.012 1335.58 286.177 1339.61 284.507C1343.69 282.806 1346.79 280.414 1348.93 277.331C1351.1 274.249 1352.19 270.605 1352.19 266.399L1357.31 267.025H1326.58V251.325H1376.46V263.75C1376.46 272.419 1374.24 279.868 1369.82 286.097C1365.4 292.293 1359.31 297.077 1351.55 300.448C1343.78 303.787 1334.9 305.457 1324.89 305.457C1313.71 305.457 1303.9 303.418 1295.44 299.341C1286.98 295.231 1280.38 289.404 1275.65 281.859C1270.95 274.281 1268.61 265.291 1268.61 254.889C1268.61 246.894 1270 239.766 1272.8 233.506C1275.63 227.213 1279.59 221.883 1284.67 217.516C1289.75 213.15 1295.67 209.827 1302.42 207.547C1309.17 205.268 1316.49 204.128 1324.36 204.128C1331.12 204.128 1337.4 204.947 1343.22 206.584C1349.04 208.189 1354.2 210.469 1358.7 213.423C1363.24 216.377 1366.95 219.892 1369.82 223.97C1372.69 228.015 1374.54 232.478 1375.35 237.358H1349.74Z" fill="#ECEDEF"/>
<path d="M1214.7 240.007H1189.2C1188.74 237.278 1187.79 234.854 1186.35 232.735C1184.92 230.584 1183.07 228.754 1180.82 227.245C1178.57 225.736 1175.97 224.58 1173.02 223.777C1170.11 222.975 1166.95 222.573 1163.54 222.573C1157.37 222.573 1151.99 223.842 1147.42 226.378C1142.84 228.882 1139.29 232.542 1136.76 237.358C1134.24 242.142 1132.98 247.954 1132.98 254.792C1132.98 261.824 1134.24 267.732 1136.76 272.515C1139.33 277.299 1142.9 280.911 1147.47 283.351C1152.05 285.792 1157.35 287.012 1163.36 287.012C1166.74 287.012 1169.86 286.642 1172.73 285.904C1175.64 285.166 1178.22 284.09 1180.47 282.677C1182.72 281.232 1184.59 279.483 1186.06 277.428C1187.57 275.373 1188.62 273.029 1189.2 270.396L1214.7 270.493C1214.04 275.02 1212.39 279.386 1209.75 283.592C1207.15 287.766 1203.64 291.507 1199.22 294.814C1194.83 298.089 1189.59 300.689 1183.5 302.616C1177.45 304.51 1170.6 305.457 1162.96 305.457C1152.32 305.457 1142.82 303.466 1134.44 299.485C1126.09 295.504 1119.5 289.741 1114.65 282.196C1109.84 274.651 1107.43 265.516 1107.43 254.792C1107.43 244.037 1109.88 234.886 1114.76 227.341C1119.65 219.796 1126.29 214.049 1134.67 210.1C1143.05 206.119 1152.48 204.128 1162.96 204.128C1169.86 204.128 1176.26 204.931 1182.16 206.536C1188.1 208.141 1193.36 210.485 1197.93 213.567C1202.51 216.617 1206.24 220.358 1209.11 224.789C1212.02 229.219 1213.88 234.292 1214.7 240.007Z" fill="#ECEDEF"/>
<path d="M1088.8 205.475V304.107H1063.59V205.475H1088.8Z" fill="#ECEDEF"/>
<path d="M949.568 222.668V205.475H1047.46V222.668H1010.97V304.107H986.061V222.668H949.568Z" fill="#ECEDEF"/>
<path d="M911.376 233.843C910.91 229.958 908.912 226.94 905.381 224.789C901.85 222.638 897.058 221.562 891.005 221.562C886.892 221.562 883.419 222.044 880.587 223.007C877.754 223.938 875.582 225.238 874.068 226.908C872.594 228.577 871.857 230.472 871.857 232.591C871.779 234.357 872.225 235.898 873.195 237.214C874.204 238.53 875.582 239.67 877.328 240.633C879.074 241.564 881.091 242.383 883.381 243.09C885.67 243.764 888.114 244.342 890.714 244.823L901.423 246.942C906.623 247.906 911.395 249.19 915.741 250.795C920.087 252.401 923.85 254.375 927.032 256.719C930.214 259.063 932.678 261.824 934.424 265.002C936.209 268.181 937.12 271.825 937.159 275.935C937.12 281.971 935.258 287.204 931.572 291.635C927.925 296.034 922.648 299.453 915.741 301.893C908.873 304.301 900.589 305.505 890.889 305.505C881.266 305.505 872.885 304.285 865.745 301.845C858.645 299.405 853.096 295.793 849.1 291.009C845.142 286.193 843.066 280.237 842.872 273.142H867.259C867.53 276.449 868.675 279.21 870.693 281.425C872.749 283.608 875.485 285.262 878.899 286.386C882.352 287.477 886.252 288.023 890.598 288.023C894.866 288.023 898.571 287.509 901.714 286.482C904.896 285.454 907.36 284.026 909.106 282.196C910.852 280.366 911.725 278.263 911.725 275.887C911.725 273.671 910.93 271.809 909.339 270.3C907.787 268.791 905.497 267.507 902.471 266.447C899.483 265.388 895.816 264.425 891.471 263.558L878.492 260.861C868.442 258.838 860.507 255.675 854.687 251.373C848.867 247.071 845.976 241.276 846.015 233.987C845.976 228.015 847.897 222.798 851.777 218.335C855.696 213.872 861.07 210.389 867.899 207.884C874.728 205.38 882.488 204.128 891.18 204.128C900.026 204.128 907.748 205.38 914.344 207.884C920.979 210.389 926.14 213.872 929.826 218.335C933.512 222.798 935.413 227.967 935.53 233.843H911.376Z" fill="#ECEDEF"/>
<path d="M825.985 205.475V304.107H800.783V205.475H825.985Z" fill="#ECEDEF"/>
<path d="M755.132 237.358C754.317 235.015 753.172 232.944 751.698 231.146C750.223 229.316 748.419 227.775 746.285 226.522C744.19 225.238 741.784 224.259 739.068 223.585C736.391 222.91 733.422 222.573 730.163 222.573C724.071 222.573 718.717 223.825 714.099 226.33C709.521 228.834 705.951 232.478 703.39 237.262C700.829 242.014 699.549 247.825 699.549 254.696C699.549 261.567 700.81 267.41 703.332 272.226C705.854 277.043 709.424 280.719 714.041 283.255C718.658 285.76 724.11 287.012 730.396 287.012C736.1 287.012 740.969 286.177 745.004 284.507C749.079 282.806 752.183 280.414 754.317 277.331C756.49 274.249 757.576 270.605 757.576 266.399L762.698 267.025H731.967V251.325H781.846V263.75C781.846 272.419 779.635 279.868 775.211 286.097C770.788 292.293 764.696 297.077 756.936 300.448C749.176 303.787 740.29 305.457 730.279 305.457C719.105 305.457 709.288 303.418 700.829 299.341C692.37 295.231 685.774 289.404 681.04 281.859C676.346 274.281 673.998 265.291 673.998 254.889C673.998 246.894 675.395 239.766 678.189 233.506C681.021 227.213 684.979 221.883 690.062 217.516C695.145 213.15 701.062 209.827 707.813 207.547C714.565 205.268 721.879 204.128 729.756 204.128C736.507 204.128 742.793 204.947 748.613 206.584C754.433 208.189 759.594 210.469 764.095 213.423C768.634 216.377 772.34 219.892 775.211 223.97C778.083 228.015 779.926 232.478 780.74 237.358H755.132Z" fill="#ECEDEF"/>
<path d="M657.434 254.792C657.434 265.548 654.97 274.699 650.042 282.244C645.153 289.789 638.48 295.552 630.021 299.533C621.601 303.482 612.134 305.457 601.618 305.457C591.026 305.457 581.519 303.466 573.099 299.485C564.68 295.504 558.025 289.741 553.136 282.196C548.247 274.651 545.803 265.516 545.803 254.792C545.803 244.037 548.247 234.886 553.136 227.341C558.025 219.796 564.68 214.049 573.099 210.1C581.519 206.119 591.026 204.128 601.618 204.128C612.134 204.128 621.601 206.119 630.021 210.1C638.48 214.049 645.153 219.796 650.042 227.341C654.97 234.886 657.434 244.037 657.434 254.792ZM631.883 254.792C631.883 247.825 630.622 241.95 628.1 237.166C625.617 232.382 622.106 228.754 617.566 226.282C613.026 223.809 607.71 222.573 601.618 222.573C595.527 222.573 590.211 223.809 585.671 226.282C581.131 228.754 577.6 232.382 575.078 237.166C572.595 241.95 571.353 247.825 571.353 254.792C571.353 261.76 572.595 267.635 575.078 272.419C577.6 277.203 581.131 280.831 585.671 283.303C590.211 285.776 595.527 287.012 601.618 287.012C607.71 287.012 613.026 285.776 617.566 283.303C622.106 280.831 625.617 277.203 628.1 272.419C630.622 267.635 631.883 261.76 631.883 254.792Z" fill="#ECEDEF"/>
<path d="M459.543 304.107V205.475H484.744V286.914H535.846V304.107H459.543Z" fill="#ECEDEF"/>
</svg>
