<svg width="24" height="24" viewBox="0 0 24 24" fill="none" xmlns="http://www.w3.org/2000/svg">
<g clip-path="url(#clip0_1009_1530)">
<path d="M19 15C17.897 15 17 15.897 17 17C17 18.103 17.897 19 19 19C20.103 19 21 18.103 21 17C21 15.897 20.103 15 19 15ZM19 18C18.449 18 18 17.551 18 17C18 16.449 18.449 16 19 16C19.551 16 20 16.449 20 17C20 17.551 19.551 18 19 18ZM22.535 13.458C21.591 12.514 20.335 11.994 19 11.994C17.665 11.994 16.409 12.514 15.465 13.458C14.52 14.402 14 15.658 14 16.994C14 18.33 14.524 19.59 15.489 20.553L19 23.811L22.535 20.53C23.48 19.586 24 18.33 24 16.994C24 15.658 23.48 14.402 22.535 13.458ZM21.841 19.809L19 22.446L16.182 19.832C15.42 19.071 15 18.063 15 16.994C15 15.925 15.416 14.921 16.172 14.165C16.927 13.41 17.932 12.994 19 12.994C20.068 12.994 21.073 13.41 21.828 14.165C22.584 14.92 23 15.925 23 16.994C23 18.063 22.584 19.067 21.841 19.809ZM7 13.999H4V12.999H7V13.999ZM12 13.999H9V12.999H12V13.999ZM4 16.999H7V17.999H4V16.999ZM9 16.999H12V17.999H9V16.999ZM7 5.999H4V4.999H7V5.999ZM12 5.999H9V4.999H12V5.999ZM7 9.999H4V8.999H7V9.999ZM12 9.999H9V8.999H12V9.999ZM15.186 22.999L16.264 23.999H0V2.5C0 1.122 1.122 0 2.5 0H13.5C14.878 0 16 1.122 16 2.5V10.675C15.653 10.84 15.318 11.032 15 11.254V2.5C15 1.673 14.327 1 13.5 1H2.5C1.673 1 1 1.673 1 2.5V23L15.186 22.999Z" fill="white"/>
</g>
<defs>
<clipPath id="clip0_1009_1530">
<rect width="24" height="24" fill="white"/>
</clipPath>
</defs>
</svg>
